<svg width="30" height="25" viewBox="0 0 30 25" fill="none" xmlns="http://www.w3.org/2000/svg">
<path d="M29.75 24.8438H18.6109C17.5226 21.2519 16.9785 17.5295 16.9785 13.6764C16.9785 9.75803 17.9707 6.65599 19.9553 4.37028C22.0039 2.01926 25.0127 0.84375 28.9818 0.84375V6.32946C25.7809 6.32946 24.1805 8.3213 24.1805 12.305V14.1662H29.75V24.8438ZM13.5215 24.8438H2.38245C1.29415 21.2519 0.75 17.5295 0.75 13.6764C0.75 9.75803 1.74227 6.65599 3.72682 4.37028C5.77539 2.01926 8.78422 0.84375 12.7533 0.84375V6.32946C9.55243 6.32946 7.95199 8.3213 7.95199 12.305V14.1662H13.5215V24.8438Z" fill="white"/>
</svg>
