<svg width="29" height="25" viewBox="0 0 29 25" fill="none" xmlns="http://www.w3.org/2000/svg">
<path d="M1.90735e-06 0.15625H11.1391C12.2274 3.74809 12.7715 7.47054 12.7715 11.3236C12.7715 15.242 11.7793 18.344 9.7947 20.6297C7.74614 22.9807 4.73731 24.1562 0.768215 24.1562V18.6705C3.9691 18.6705 5.56954 16.6787 5.56954 12.695V10.8338H1.90735e-06V0.15625ZM16.2285 0.15625H27.3675C28.4558 3.74809 29 7.47054 29 11.3236C29 15.242 28.0077 18.344 26.0232 20.6297C23.9746 22.9807 20.9658 24.1562 16.9967 24.1562V18.6705C20.1976 18.6705 21.798 16.6787 21.798 12.695V10.8338H16.2285V0.15625Z" fill="white"/>
</svg>
