<svg width="32" height="33" viewBox="0 0 32 33" fill="none" xmlns="http://www.w3.org/2000/svg">
<path d="M31.9435 6.42046C31.819 6.07803 31.5068 5.83821 31.1442 5.80709L27.0509 5.45003L27.0508 5.44934L26.6939 1.35671C26.6627 0.994152 26.4229 0.681964 26.0805 0.557464C25.7408 0.431152 25.3545 0.517152 25.0972 0.775339L20.5191 5.35346C20.3232 5.5494 20.2243 5.82128 20.2481 6.09778L20.6729 10.9757C20.6926 11.2021 20.7923 11.4051 20.9436 11.5566C21.0951 11.7083 21.2984 11.8083 21.5252 11.828L26.4032 12.2528C26.6563 12.2782 26.9407 12.1887 27.1475 11.9818L31.7256 7.40371C31.9837 7.14646 32.068 6.7629 31.9435 6.42046Z" fill="#805B55"/>
<path d="M21.5251 11.8279L26.403 12.2527C26.6562 12.278 26.9405 12.1885 27.1474 11.9817L31.7255 7.40359C31.9837 7.14634 32.0679 6.76272 31.9434 6.42034C31.8188 6.07797 31.5067 5.83809 31.1441 5.80697L27.0508 5.44991L27.0507 5.44922L20.9434 11.5565C21.0949 11.7082 21.2983 11.8082 21.5251 11.8279Z" fill="#805B55"/>
<path d="M20.8013 11.6988C18.5944 9.49187 15.5475 8.125 12.1875 8.125C5.46756 8.125 0 13.5926 0 20.3125C0 23.6725 1.36687 26.7194 3.57375 28.9263C5.78063 31.1331 8.8275 32.5 12.1875 32.5C18.9075 32.5 24.375 27.0325 24.375 20.3125C24.375 16.9526 23.0081 13.9057 20.8013 11.6988Z" fill="#805B55"/>
<path d="M24.375 20.3125C24.375 16.9525 23.0081 13.9056 20.8012 11.6987L3.57373 28.9262C5.78061 31.1331 8.82748 32.5 12.1875 32.5C18.9075 32.5 24.375 27.0325 24.375 20.3125Z" fill="#805B55"/>
<path d="M18.151 14.349C16.6232 12.8212 14.5139 11.875 12.1875 11.875C7.53481 11.875 3.75 15.6598 3.75 20.3125C3.75 22.6389 4.69619 24.7482 6.224 26.276C7.75181 27.8037 9.86112 28.75 12.1875 28.75C16.8402 28.75 20.625 24.9652 20.625 20.3125C20.625 17.9862 19.6788 15.8768 18.151 14.349Z" fill="#FBF6F0"/>
<path d="M20.6251 20.3126C20.6251 17.9862 19.6789 15.8769 18.1511 14.3491L6.22412 26.2762C7.75187 27.8039 9.86125 28.7501 12.1876 28.7501C16.8403 28.7501 20.6251 24.9654 20.6251 20.3126Z" fill="#FBF6F0"/>
<path d="M15.5004 16.9996C14.6516 16.1508 13.4798 15.625 12.1875 15.625C9.60294 15.625 7.5 17.7279 7.5 20.3125C7.5 21.6048 8.02575 22.7766 8.87456 23.6254C9.72337 24.4742 10.8952 25 12.1875 25C14.7721 25 16.875 22.8971 16.875 20.3125C16.875 19.0202 16.3492 17.8484 15.5004 16.9996Z" fill="#805B55"/>
<path d="M16.8749 20.3124C16.8749 19.0202 16.3492 17.8483 15.5004 16.9995L8.87451 23.6254C9.72332 24.4743 10.8952 24.9999 12.1874 24.9999C14.772 24.9999 16.8749 22.897 16.8749 20.3124Z" fill="#805B55"/>
<path d="M30.231 2.26878C29.8649 1.90259 29.2715 1.90259 28.9054 2.26878L11.7058 19.4684C11.3396 19.8346 11.3396 20.4279 11.7058 20.7941C12.072 21.1603 12.6653 21.1603 13.0315 20.7941L30.231 3.59447C30.5973 3.22828 30.5973 2.63503 30.231 2.26878Z" fill="#805B55"/>
<path d="M13.0317 20.7938L30.2313 3.59424C30.5975 3.22805 30.5975 2.63474 30.2313 2.26855L11.7061 20.7938C12.0722 21.1601 12.6656 21.1601 13.0317 20.7938Z" fill="#805B55"/>
</svg>
