<svg width="48" height="48" viewBox="0 0 48 48" fill="none" xmlns="http://www.w3.org/2000/svg">
<path d="M30.9567 15.0688C33.2289 14.9581 33.5784 18.681 31.0849 18.3547C29.0166 18.2965 28.7545 15.1271 30.9567 15.0688Z" fill="#FBF6F0"/>
<path d="M38.402 23.9362C38.5826 10.612 33.2459 8.88753 21.0753 9.62743C12.6917 8.98074 9.3999 15.3311 9.37663 22.8409C8.92221 30.1934 11.1885 39.4859 20.3413 38.7053C31.7661 38.5014 38.9322 37.3419 38.402 23.9362ZM18.4245 1.00489C31.5098 -0.212755 46.6575 1.66324 46.8381 18.0403C47.2984 25.5791 47.5431 33.6599 43.8494 40.4997C39.9168 47.188 33.3625 46.9083 26.546 47.0656C20.551 47.3045 14.3696 47.823 8.59012 45.8597C2.69997 43.8206 1.0978 39.3753 1.22597 33.5608C1.02206 28.5563 0.818149 23.5634 0.905544 18.553C1.19684 6.67943 6.38203 0.731067 18.4245 1.00489Z" fill="#805B55"/>
<path d="M21.0758 9.62757C33.2465 8.88767 38.5772 10.6122 38.4025 23.9364C38.9327 37.3421 31.7666 38.4957 20.3476 38.7054C11.189 39.4861 8.92851 30.1877 9.38293 22.8411C9.40043 15.3313 12.6921 8.98089 21.0758 9.62757ZM35.839 24.3559C35.839 16.1062 34.8253 11.7366 25.457 12.1561C22.6721 12.4299 19.4154 12.0163 16.6189 12.9659C11.0026 15.71 11.7775 23.2547 12.296 28.4865C12.8028 36.9401 19.8116 36.6896 26.3717 35.7458C34.4291 35.3205 35.9148 31.8423 35.839 24.3559Z" fill="#FBF6F0"/>
<path d="M24.8861 18.9429C18.9552 18.64 17.1258 28.4102 23.6335 28.6724C29.7509 28.5268 30.6889 20.6849 24.8861 18.9429ZM23.6452 16.6999C33.8873 16.0066 33.2582 31.1427 23.5986 31.0378C14.4458 30.7581 15.3023 17.5155 23.6452 16.6999Z" fill="#FBF6F0"/>
<path d="M23.6381 28.6732C17.1303 28.4052 18.9539 18.6349 24.8906 18.9437C30.6876 20.6857 29.7496 28.5276 23.6381 28.6732Z" fill="#805B55"/>
<path d="M25.456 12.1563C34.8243 11.731 35.8439 16.1063 35.838 24.356C35.908 31.8425 34.4282 35.3206 26.3707 35.7459C19.8106 36.6898 12.8019 36.9402 12.295 28.4867C11.7765 23.2491 11.0074 15.7101 16.6179 12.9661C19.4144 12.0164 22.6712 12.4301 25.456 12.1563ZM23.6034 31.0385C33.2571 31.1434 33.8922 16.0073 23.65 16.7006C15.3012 17.5162 14.4448 30.7588 23.6034 31.0385ZM31.084 18.3552C33.5776 18.6814 33.228 14.9644 30.9558 15.0693C28.7536 15.1275 29.0158 18.2969 31.084 18.3552Z" fill="#805B55"/>
</svg>
