<svg width="17" height="16" viewBox="0 0 17 16" fill="none" xmlns="http://www.w3.org/2000/svg">
<path d="M8.39648 0.220215C10.5709 0.220216 10.8432 0.229628 11.6982 0.268066C14.6068 0.39494 16.2226 1.94896 16.3535 4.73877C16.3922 5.56025 16.4014 5.82211 16.4014 7.90967C16.4014 9.99869 16.3922 10.2603 16.3535 11.0806C16.2228 13.8758 14.6016 15.4251 11.6982 15.5532C10.8432 15.5904 10.5709 15.5991 8.39648 15.5991C6.22204 15.5991 5.95059 15.5904 5.0957 15.5532C2.18702 15.4251 0.571902 13.8732 0.438477 11.0806C0.399784 10.2603 0.390625 9.99868 0.390625 7.90967C0.390626 5.82211 0.399784 5.56025 0.438477 4.73877C0.572034 1.94511 2.18715 0.396221 5.0957 0.268066C5.52311 0.248853 5.8046 0.237027 6.25098 0.22998L8.39648 0.220215ZM8.39551 1.60791C6.25813 1.60791 6.00428 1.61372 5.16113 1.65088C2.98896 1.74572 1.97764 2.7344 1.87891 4.8042C1.84156 5.61383 1.83203 5.85787 1.83203 7.91064C1.83203 9.96354 1.84155 10.2071 1.87891 11.0171C1.979 13.0817 2.98633 14.0733 5.16113 14.1694C6.0043 14.2066 6.25812 14.2144 8.39551 14.2144C10.5341 14.2144 10.7863 14.2053 11.6309 14.1694C13.803 14.0746 14.813 13.0842 14.9131 11.0171C14.9504 10.2071 14.958 9.96354 14.958 7.91064C14.958 5.85788 14.9504 5.6151 14.9131 4.8042C14.813 2.73568 13.8017 1.7467 11.6309 1.65186C10.7863 1.61469 10.5328 1.60791 8.39551 1.60791ZM8.39648 3.96143C10.6657 3.96167 12.5066 5.72998 12.5068 7.90967C12.5068 10.0908 10.6658 11.8586 8.39648 11.8589C6.12691 11.8589 4.28516 10.091 4.28516 7.90967C4.28538 5.72855 6.12705 3.96143 8.39648 3.96143ZM8.39551 5.34717C6.92123 5.34717 5.72669 6.49488 5.72656 7.90967C5.72656 9.32585 6.92115 10.4731 8.39551 10.4731C9.86833 10.4729 11.0645 9.32571 11.0645 7.90967C11.0643 6.49373 9.86825 5.34739 8.39551 5.34717ZM12.668 2.8833C13.2002 2.88344 13.6299 3.29616 13.6299 3.80615C13.6298 4.3161 13.1988 4.72886 12.668 4.729C12.137 4.729 11.7071 4.31491 11.707 3.80615C11.707 3.29607 12.1383 2.8833 12.668 2.8833Z" fill="#805B55"/>
</svg>
