<svg width="55" height="68" viewBox="0 0 55 68" fill="none" xmlns="http://www.w3.org/2000/svg">
<path d="M37.0625 2H17.9375C16.1771 2 14.75 3.43269 14.75 5.20001V11.6C14.75 13.3673 16.1771 14.8 17.9375 14.8H37.0625C38.8229 14.8 40.25 13.3673 40.25 11.6V5.20001C40.25 3.43269 38.8229 2 37.0625 2Z" stroke="#805B55" stroke-width="3" stroke-linecap="round" stroke-linejoin="round"/>
<path d="M40.25 8.39941H46.625C48.3158 8.39941 49.9373 9.0737 51.1328 10.2739C52.3283 11.4742 53 13.102 53 14.7994V59.5996C53 61.297 52.3283 62.9248 51.1328 64.1251C49.9373 65.3253 48.3158 65.9996 46.625 65.9996H8.375C6.68424 65.9996 5.06274 65.3253 3.86719 64.1251C2.67165 62.9248 2 61.297 2 59.5996V14.7994C2 13.102 2.67165 11.4742 3.86719 10.2739C5.06274 9.0737 6.68424 8.39941 8.375 8.39941H14.75" stroke="#805B55" stroke-width="3" stroke-linecap="round" stroke-linejoin="round"/>
<path d="M27.5 30.7998H40.25" stroke="#805B55" stroke-width="3" stroke-linecap="round" stroke-linejoin="round"/>
<path d="M27.5 46.7998H40.25" stroke="#805B55" stroke-width="3" stroke-linecap="round" stroke-linejoin="round"/>
<path d="M14.75 30.7998H14.782" stroke="#805B55" stroke-width="3" stroke-linecap="round" stroke-linejoin="round"/>
<path d="M14.75 46.7998H14.782" stroke="#805B55" stroke-width="3" stroke-linecap="round" stroke-linejoin="round"/>
</svg>
