<svg width="186" height="120" viewBox="0 0 186 120" fill="none" xmlns="http://www.w3.org/2000/svg">
<g clip-path="url(#clip0_385_57)">
<path d="M107.922 77.5546C85.9265 77.5546 64.0357 77.5716 42.1451 77.5408C37.5597 77.5344 33.008 77.0678 28.5665 75.8456C24.499 74.7264 20.7469 72.9798 17.6842 70.0036C15.6277 68.0051 14.1122 65.6267 13.0957 62.9364C12.1261 60.3704 11.5792 57.7154 11.4262 54.9812C11.3482 53.5872 11.2578 52.1886 11.2898 50.7948C11.3816 46.7982 12.0235 42.8843 13.1579 39.0468C13.3955 38.243 13.7823 37.893 14.6495 37.7676C18.1068 37.2679 21.5493 36.6657 24.9977 36.1041C25.2703 36.0597 25.5463 36.0355 25.8401 35.9996C25.3423 37.5253 24.8107 38.9906 24.3865 40.4863C23.204 44.6553 22.7317 48.9124 23.0626 53.2354C23.2525 55.7155 23.7526 58.1419 24.8936 60.3869C26.4659 63.4806 29.0252 65.4236 32.2196 66.6174C34.6951 67.5425 37.2725 68.083 39.8917 68.1655C45.1714 68.3319 50.4564 68.3331 55.7392 68.3986C55.8716 68.4002 56.0045 68.3573 56.2278 68.3201C56.2278 57.7379 56.2278 47.1744 56.2278 36.5371C60.1581 36.5371 63.9922 36.5371 67.9323 36.5371C67.9323 47.1293 67.9323 57.6865 67.9323 68.2154C68.7929 68.4424 107.384 68.5005 108.69 68.2937C108.769 67.8461 108.908 67.3771 108.926 66.9034C109.018 64.5295 109.186 62.1513 109.119 59.7805C109.051 57.4056 108.62 55.0626 107.657 52.8553C106.092 49.2698 103.309 47.096 99.6141 46.0565C96.8037 45.2659 93.9198 45.0188 91.0029 45.1868C88.0807 45.355 85.1583 45.5215 82.1719 45.6924C82.1719 42.8005 82.1719 39.8389 82.1719 36.7558C83.1773 36.6307 84.2001 36.4455 85.2302 36.3861C88.2636 36.2115 91.3008 35.9538 94.3347 35.9749C98.4649 36.0036 102.554 36.4724 106.516 37.787C113.535 40.1158 117.903 44.8582 119.669 52.0228C120.18 54.0955 120.526 56.1899 120.57 58.3301C120.603 59.9705 120.773 61.6164 120.686 63.2492C120.527 66.2064 120.252 69.1587 119.965 72.1072C119.793 73.8751 119.507 75.6318 119.285 77.2943C119.187 77.4054 119.167 77.4331 119.142 77.4558C119.116 77.4792 119.086 77.5156 119.058 77.5157C115.381 77.5305 111.704 77.5425 107.922 77.5546Z" fill="#FBF6F0"/>
<path d="M139.371 51.9185C139.388 52.4137 139.405 52.9089 139.361 53.493C139.065 53.6428 138.832 53.7037 138.588 53.8654C138.59 55.7285 138.601 57.4909 138.655 59.3115C138.935 59.4024 139.172 59.4352 139.408 59.5612C139.44 60.1452 139.473 60.636 139.438 61.1355C139.326 61.1485 139.281 61.1529 139.236 61.1573C139.062 61.1678 138.888 61.1784 138.575 61.1974C138.575 61.5753 138.575 61.9457 138.575 62.3161C138.575 66.2732 138.604 70.2307 138.564 74.1874C138.54 76.5262 138.31 78.8537 137.727 81.1294C136.233 86.9638 132.553 90.6543 126.766 92.2704C124.396 92.9322 121.977 93.2058 119.521 93.2451C117.172 93.2826 114.842 93.1531 112.541 92.6568C112.304 92.6058 112.073 92.5327 111.762 92.4491C112.051 89.7387 112.338 87.0506 112.636 84.2604C113.513 84.4404 114.348 84.6317 115.19 84.7814C117.336 85.1625 119.489 85.2974 121.653 84.9129C124.222 84.4563 125.927 82.9773 126.862 80.5623C127.371 79.2466 127.628 77.8742 127.696 76.4799C127.795 74.4566 127.846 72.4289 127.848 70.403C127.862 59.6171 127.855 48.8312 127.855 38.0453C127.855 37.6333 127.855 37.2213 127.855 36.6695C131.484 36.7417 134.995 36.4924 138.581 36.8881C138.581 41.8392 138.581 46.6663 138.636 51.6469C138.918 51.8398 139.145 51.8791 139.371 51.9185ZM136.686 72.6067C136.683 71.2579 136.693 69.9087 136.68 68.5683C134.228 68.5683 131.932 68.5683 129.596 68.5683C129.596 70.9412 129.596 73.2602 129.596 75.622C131.919 75.622 134.179 75.622 136.492 75.622C136.866 74.6887 136.61 73.7372 136.686 72.6067Z" fill="#FBF6F0"/>
<path d="M150.375 44.2068C150.393 43.685 150.412 43.1633 150.559 42.5548C151.212 42.4595 151.735 42.4508 152.267 42.4494C152.275 42.4567 152.289 42.4723 152.293 42.565C152.296 43.1688 152.296 43.6798 152.296 44.2065C152.978 44.2065 153.517 44.2065 154.14 44.2065C154.14 43.5812 154.14 43.0268 154.147 42.4645C154.154 42.4567 154.17 42.4421 154.259 42.4495C154.868 42.4616 155.388 42.4663 155.908 42.471C155.956 43.0502 156.004 43.6295 156.059 44.2864C155.41 44.3279 154.867 44.3627 154.262 44.4014C154.262 44.9128 154.262 45.3879 154.262 45.9707C154.776 46.0015 155.32 46.0341 155.98 46.0737C155.98 46.6482 155.98 47.2223 155.98 47.8588C156.39 47.8838 156.689 47.9019 157.109 47.9275C157.109 40.0798 157.109 32.2916 157.109 24.4404C160.568 24.4404 163.908 24.4404 167.31 24.4404C167.31 42.0333 167.31 59.5925 167.31 77.2013C163.912 77.2013 160.57 77.2013 157.131 77.2013C157.131 70.6368 157.131 64.1384 157.131 57.5281C156.111 57.5281 155.182 57.5281 154.192 57.5281C154.192 56.8089 154.192 56.2017 154.192 55.4977C155.151 55.4977 156.082 55.4977 157.072 55.4977C157.072 54.8984 157.072 54.3921 157.072 53.7686C156.139 53.7686 155.212 53.7686 154.207 53.7686C154.207 53.0838 154.207 52.5114 154.207 51.8302C155.132 51.8302 156.061 51.8302 157.062 51.8302C157.062 51.1835 157.062 50.6425 157.062 49.9824C156.136 49.9824 155.208 49.9824 154.156 49.9824C154.156 48.7049 154.156 47.5364 154.156 46.3076C153.492 46.3076 152.956 46.3076 152.347 46.3076C152.321 46.8953 152.297 47.445 152.268 48.0852C151.748 48.1129 151.236 48.1402 150.641 48.1719C150.641 48.6765 150.641 49.1772 150.641 49.7673C151.127 49.7917 151.638 49.8174 152.226 49.8469C152.226 51.1042 152.226 52.3445 152.226 53.6583C151.66 53.6583 151.088 53.6583 150.417 53.6583C150.417 52.4344 150.417 51.2583 150.417 50.017C149.815 50.017 149.31 50.017 148.708 50.017C148.708 51.1998 148.708 52.3773 148.708 53.6423C148.046 53.6423 147.477 53.6423 146.787 53.6423C146.787 51.2311 146.787 48.8278 146.911 46.3359C147.518 46.1977 148.001 46.148 148.484 46.0983C148.492 45.5781 148.5 45.0578 148.539 44.4365C148.57 44.3353 148.657 44.3229 148.749 44.3344C149.353 44.2995 149.864 44.2531 150.375 44.2068ZM163.92 45.5402C164.503 45.5402 165.087 45.5402 165.68 45.5402C165.68 43.0865 165.68 40.7667 165.68 38.4486C163.349 38.4486 161.096 38.4486 158.827 38.4486C158.827 40.831 158.827 43.1447 158.827 45.5401C160.509 45.5401 162.111 45.5401 163.92 45.5402ZM148.703 46.3892C148.703 46.9239 148.703 47.4586 148.703 47.9926C149.332 47.9926 149.834 47.9926 150.351 47.9926C150.351 47.3859 150.351 46.8509 150.351 46.2637C149.809 46.2637 149.331 46.2637 148.703 46.3892Z" fill="#FBF6F0"/>
<path d="M165.981 3.46777C167.06 3.47712 168.042 3.44788 169.019 3.50593C170.128 3.57183 171.232 3.71587 172.313 3.82343C172.506 4.66476 171.996 8.50405 171.477 10.3272C170.025 10.2129 168.572 10.1072 167.121 9.9816C166.065 9.89019 165.034 10.0025 164.047 10.3733C162.593 10.9192 161.686 12.1369 161.724 13.5482C161.764 15.0855 162.496 16.1965 163.931 16.8197C165.369 17.444 166.89 17.627 168.433 17.6521C170.148 17.68 171.864 17.6572 173.579 17.6606C173.782 17.6611 173.985 17.6882 174.244 17.707C174.244 19.8381 174.244 21.9232 174.244 24.01C173.502 24.2174 151.969 24.2999 149.992 24.0945C149.992 21.9918 149.992 19.8811 149.992 17.6238C151.638 17.6887 153.253 17.7524 154.899 17.8173C154.579 17.3172 154.244 16.8737 153.994 16.3864C153.269 14.9708 153.36 13.4442 153.626 11.9662C154.329 8.07167 156.822 5.72374 160.433 4.42814C162.192 3.79733 164.021 3.53941 165.981 3.46777Z" fill="#FBF6F0"/>
<path d="M35.5894 88.7259C36.928 84.7911 41.287 83.3745 44.6153 85.3779C46.8905 86.7475 47.9491 89.5476 47.2127 92.2236C46.5153 94.7576 44.1919 96.5213 41.578 96.612C38.8543 96.7066 36.2131 95.0024 35.5167 92.1266C35.2533 91.0386 35.2553 89.9111 35.5894 88.7259Z" fill="#FBF6F0"/>
<path d="M150.515 66.61C150.479 65.777 150.427 64.9444 150.411 64.111C150.392 63.1719 150.406 62.2321 150.406 61.2291C149.826 61.2291 149.319 61.2291 148.688 61.2291C148.688 62.4251 148.688 63.6279 148.688 64.8868C146.762 64.8868 144.957 64.8868 142.995 64.8868C142.974 63.7342 142.989 62.5608 143.002 61.2241C143.021 61.0142 143.025 60.9684 143.029 60.9227C143.644 60.9934 144.258 61.0641 144.898 61.1378C144.934 61.7216 144.967 62.2698 145.004 62.8766C145.57 62.8766 146.079 62.8766 146.726 62.8766C146.726 61.7047 146.726 60.5412 146.726 59.2877C147.997 59.2877 149.136 59.2877 150.391 59.2877C150.391 57.9623 150.391 56.7252 150.391 55.4336C151.054 55.4336 151.599 55.4336 152.297 55.4336C152.299 59.1039 152.301 62.7571 152.212 66.5109C151.585 66.611 151.05 66.6105 150.515 66.61Z" fill="#FBF6F0"/>
<path d="M87.5305 106.861C88.0606 107.01 88.5093 107.159 89.0896 107.351C89.5921 106.994 90.2934 106.73 91.1014 106.887C91.8213 107.026 92.1804 107.351 92.1977 108.073C92.232 109.499 92.2078 110.926 92.2078 112.393C91.8642 112.393 91.5989 112.393 91.2642 112.393C91.2642 111.3 91.2649 110.256 91.2637 109.211C91.2634 108.966 91.2908 108.715 91.2466 108.478C91.0975 107.68 90.2901 107.404 89.6578 107.921C89.1456 108.34 89.0616 108.919 89.0603 109.526C89.0582 110.466 89.0597 111.406 89.0597 112.393C88.7244 112.393 88.4592 112.393 88.1117 112.393C88.1117 111.591 88.1117 110.828 88.1117 110.065C88.1117 109.645 88.1204 109.226 88.1097 108.806C88.0898 108.03 87.7952 107.638 87.235 107.62C86.6659 107.603 86.0583 108.188 86.0433 108.844C86.0171 109.993 86.036 111.143 86.036 112.368C85.6823 112.397 85.3896 112.42 85.0254 112.449C85.0254 110.618 85.0254 108.854 85.0254 106.952C85.3713 107.03 85.6889 107.101 86.1851 107.213C86.4619 107.136 86.9555 106.998 87.5305 106.861Z" fill="#FBF6F0"/>
<path d="M131.696 109.323C131.693 108.944 131.719 108.661 131.68 108.386C131.593 107.766 131.007 107.465 130.432 107.742C129.877 108.01 129.611 108.448 129.625 109.086C129.65 110.167 129.632 111.249 129.632 112.388C129.268 112.388 128.968 112.388 128.605 112.388C128.605 110.612 128.605 108.844 128.605 106.94C129.01 107.024 129.368 107.098 129.886 107.205C130.687 106.653 131.652 106.634 132.581 107.456C133.247 106.957 133.953 106.716 134.762 106.895C135.466 107.05 135.82 107.38 135.839 108.106C135.875 109.5 135.849 110.895 135.849 112.366C135.505 112.366 135.223 112.366 134.849 112.366C134.849 111.321 134.849 110.313 134.849 109.306C134.849 109.061 134.843 108.816 134.846 108.571C134.85 108.124 134.613 107.79 134.21 107.729C133.911 107.685 133.53 107.792 133.269 107.961C132.788 108.273 132.698 108.809 132.7 109.353C132.701 110.329 132.7 111.305 132.7 112.374C132.363 112.393 132.081 112.409 131.696 112.43C131.696 111.367 131.696 110.395 131.696 109.323Z" fill="#FBF6F0"/>
<path d="M118.424 112.796C118.443 112.509 118.443 112.303 118.443 112.049C118.006 112.243 117.651 112.477 117.265 112.557C116.171 112.782 115.038 112.009 114.731 110.85C114.499 109.98 114.553 109.105 114.889 108.274C115.47 106.834 116.883 106.467 118.262 107.28C118.657 107.146 118.98 107.036 119.457 106.874C119.457 107.764 119.457 108.489 119.457 109.214C119.457 110.265 119.511 111.319 119.445 112.366C119.295 114.767 117.834 115.01 116.018 114.65C115.333 114.515 114.907 113.962 114.842 113.156C115.222 113.066 115.535 112.959 115.871 113.316C116.883 114.391 117.825 114.215 118.424 112.796ZM115.674 109.258C115.728 109.773 115.726 110.301 115.851 110.798C115.995 111.365 116.457 111.652 117.031 111.663C117.599 111.673 118.044 111.419 118.26 110.861C118.575 110.043 118.598 109.212 118.192 108.432C117.76 107.603 116.674 107.517 116.098 108.247C115.911 108.484 115.824 108.8 115.674 109.258Z" fill="#FBF6F0"/>
<path d="M140.534 49.9531C140.093 49.953 139.751 49.953 139.336 49.953C139.336 48.0319 139.336 46.2034 139.336 44.3008C139.942 44.3008 140.552 44.3008 141.296 44.3008C141.296 45.508 141.296 46.7055 141.296 47.9945C142.562 47.9945 143.698 47.9945 144.9 47.9945C144.9 48.6639 144.9 49.2377 144.9 49.9531C143.465 49.9531 142.05 49.9531 140.534 49.9531Z" fill="#FBF6F0"/>
<path d="M148.665 70.2002C148.665 70.9237 148.665 71.5459 148.665 72.2343C148.016 72.2343 147.447 72.2343 146.789 72.2343C146.789 71.0369 146.789 69.8637 146.789 68.6064C146.171 68.6064 145.636 68.6064 144.981 68.6064C144.981 69.1528 144.981 69.7256 144.981 70.3545C144.293 70.3545 143.722 70.3545 143.1 70.3545C143.1 69.1261 143.1 67.9532 143.1 66.7012C144.31 66.7012 145.508 66.7012 146.786 66.7012C146.817 67.2017 146.848 67.7092 146.886 68.3322C147.436 68.3709 147.973 68.4086 148.63 68.4548C148.642 69.015 148.653 69.557 148.665 70.2002Z" fill="#FBF6F0"/>
<path d="M96.8299 112.535C96.4702 112.565 96.189 112.596 95.9118 112.575C95.0585 112.509 94.4809 111.986 94.4152 111.247C94.3312 110.302 94.6538 109.787 95.5558 109.517C96.0902 109.357 96.6446 109.264 97.1858 109.125C97.4454 109.058 97.6953 108.954 97.9522 108.866C97.9666 108.323 97.8086 107.963 97.3351 107.835C96.7703 107.684 96.1536 107.662 95.8073 108.19C95.4907 108.672 95.1665 108.743 94.5617 108.546C94.7139 108.175 94.786 107.788 95.0014 107.514C95.6149 106.733 97.6626 106.552 98.3789 107.248C98.6717 107.533 98.8521 108.015 98.9171 108.433C99.0074 109.013 98.9261 109.618 98.9457 110.212C98.9659 110.828 98.7157 111.541 99.5195 111.914C99.584 111.944 99.528 112.234 99.528 112.437C98.8932 112.731 98.377 112.614 97.9852 112.078C97.606 112.231 97.2582 112.372 96.8299 112.535ZM97.1276 109.94C96.7285 110.069 96.3237 110.183 95.9318 110.33C95.5823 110.462 95.3188 110.697 95.3691 111.113C95.4195 111.529 95.7526 111.675 96.102 111.763C97.2273 112.047 98.1048 111.107 97.9066 109.816C97.7001 109.85 97.4938 109.883 97.1276 109.94Z" fill="#FBF6F0"/>
<path d="M112.522 110.511C112.587 111.047 112.308 111.572 113.023 111.815C113.348 111.926 113.144 112.565 112.745 112.553C112.33 112.54 111.919 112.358 111.482 112.244C110.884 112.349 110.218 112.545 109.548 112.564C108.663 112.588 108.018 111.981 107.947 111.223C107.863 110.323 108.224 109.782 109.128 109.506C109.529 109.383 109.945 109.313 110.353 109.214C110.719 109.125 111.083 109.03 111.417 108.945C111.609 108.386 111.411 108.055 110.978 107.856C110.461 107.619 109.671 107.741 109.361 108.213C109.041 108.702 108.7 108.755 108.226 108.571C108.329 107.57 108.645 107.153 109.528 106.949C109.896 106.863 110.29 106.845 110.67 106.858C111.983 106.902 112.499 107.433 112.52 108.731C112.53 109.291 112.522 109.851 112.522 110.511ZM111.006 111.429C111.604 111.028 111.614 110.474 111.415 109.768C110.761 109.959 110.129 110.132 109.506 110.33C109.14 110.446 108.915 110.682 108.952 111.108C108.992 111.553 109.334 111.736 109.665 111.748C110.063 111.762 110.467 111.607 111.006 111.429Z" fill="#FBF6F0"/>
<path d="M56.0263 107.405C56.1906 107.932 56.354 108.393 56.3922 108.865C56.4456 109.523 56.3979 110.19 56.4089 110.853C56.4148 111.215 56.2828 111.644 56.8441 111.772C56.9325 111.792 57.0504 112.085 57.0064 112.189C56.9397 112.346 56.7269 112.57 56.6048 112.554C56.1866 112.497 55.7809 112.348 55.1954 112.186C54.7914 112.503 54.1235 112.629 53.4155 112.582C52.5868 112.528 51.9403 112.01 51.8344 111.318C51.698 110.427 52.1038 109.768 53.0158 109.508C53.779 109.29 54.5603 109.136 55.2927 108.964C55.4951 108.391 55.2973 108.06 54.8683 107.858C54.3592 107.619 53.6231 107.782 53.2338 108.191C52.8008 108.645 52.8008 108.645 52.0739 108.556C52.0544 107.857 52.3688 107.332 52.9997 107.097C54.008 106.722 55.0317 106.64 56.0263 107.405ZM52.8333 111.068C53.2163 111.777 53.6167 111.948 54.3307 111.708C55.259 111.396 55.4861 110.962 55.2806 109.776C54.6773 109.949 54.0663 110.083 53.4919 110.309C53.2356 110.41 53.053 110.697 52.8333 111.068Z" fill="#FBF6F0"/>
<path d="M122.665 107.172C123.031 107.039 123.326 106.907 123.632 106.872C124.884 106.732 126.267 107.282 126.402 109.014C126.423 109.283 126.434 109.552 126.457 109.934C125.121 109.934 123.851 109.934 122.527 109.934C122.546 110.768 122.795 111.328 123.522 111.567C124.182 111.784 124.772 111.667 125.167 111.049C125.445 110.615 125.804 110.568 126.244 110.71C126.068 111.84 125.555 112.374 124.482 112.558C123.341 112.754 122.376 112.345 121.866 111.465C121.177 110.276 121.348 107.927 122.665 107.172ZM123.496 107.827C122.92 108.085 122.512 108.45 122.603 109.151C123.531 109.151 124.419 109.151 125.309 109.151C125.227 108.094 124.837 107.787 123.496 107.827Z" fill="#FBF6F0"/>
<path d="M141.442 111.345C141.789 110.806 142.118 110.43 142.755 110.751C142.482 112.049 141.843 112.565 140.501 112.581C139.183 112.596 138.255 111.907 138.043 110.619C137.943 110.015 137.954 109.352 138.091 108.757C138.489 107.02 140.371 106.293 141.892 107.233C142.659 107.707 142.936 108.392 142.928 109.894C141.649 109.894 140.367 109.894 139.085 109.894C139.099 111.463 139.932 111.972 141.442 111.345ZM139.176 108.522C139.135 108.714 139.094 108.906 139.046 109.136C140.036 109.136 140.95 109.136 141.882 109.136C141.496 107.613 140.419 107.332 139.176 108.522Z" fill="#FBF6F0"/>
<path d="M61.8379 109.704C61.8744 109.308 61.8803 108.989 61.9526 108.686C62.2452 107.461 63.1815 106.802 64.5187 106.856C65.7049 106.903 66.5694 107.627 66.7599 108.807C66.8355 109.274 66.8342 109.768 66.7822 110.241C66.6096 111.807 65.7996 112.577 64.3801 112.58C62.9453 112.583 62.0975 111.821 61.8645 110.311C61.838 110.139 61.8458 109.962 61.8379 109.704ZM65.8018 110.294C65.8188 110.088 65.8557 109.881 65.8495 109.675C65.8163 108.564 65.1875 107.766 64.3528 107.76C63.5223 107.754 62.9495 108.423 62.8294 109.54C62.722 110.54 63.2096 111.419 63.9814 111.617C64.8152 111.831 65.3372 111.482 65.8018 110.294Z" fill="#FBF6F0"/>
<path d="M79.9157 110.458C79.9294 111.864 79.3091 112.544 77.9889 112.569C77.4771 112.579 76.9336 112.51 76.4564 112.335C75.878 112.124 75.4588 111.692 75.5171 110.923C75.999 110.804 76.385 110.763 76.7642 111.265C77.154 111.781 78.0455 111.81 78.5806 111.453C79.0525 111.138 79.0495 110.637 78.543 110.382C78.2676 110.243 77.9438 110.201 77.6441 110.108C77.2452 109.985 76.8273 109.898 76.4547 109.719C75.453 109.236 75.2891 108.165 76.0718 107.4C77.0974 106.399 79.2426 106.753 79.7348 108.012C79.7824 108.133 79.7639 108.281 79.7801 108.462C79.3063 108.627 78.9648 108.717 78.625 108.18C78.3195 107.698 77.6048 107.613 77.1154 107.9C76.9306 108.008 76.7207 108.251 76.7157 108.438C76.7107 108.625 76.9076 108.911 77.0872 108.989C77.4997 109.167 77.9578 109.238 78.3933 109.366C78.9988 109.545 79.6201 109.707 79.9157 110.458Z" fill="#FBF6F0"/>
<path d="M146.128 108.593C146.091 109.895 146.091 111.111 146.091 112.392C145.663 112.411 145.363 112.424 145 112.44C145 110.615 145 108.851 145 107.065C145.427 106.929 145.818 106.833 145.997 107.27C146.649 107.129 147.279 106.887 147.911 106.883C148.896 106.876 149.366 107.417 149.379 108.396C149.395 109.715 149.383 111.035 149.383 112.396C149.035 112.396 148.77 112.396 148.427 112.396C148.427 111.309 148.429 110.267 148.427 109.226C148.425 108.161 148.301 107.87 147.679 107.706C146.951 107.514 146.495 107.91 146.128 108.593Z" fill="#FBF6F0"/>
<path d="M158.656 111.509C159.24 110.85 159.214 110.562 158.566 110.32C158.078 110.138 157.55 110.065 157.051 109.907C156.157 109.625 155.767 109.157 155.788 108.452C155.811 107.671 156.352 107.094 157.244 106.898C158.7 106.579 159.623 107.084 159.986 108.446C159.55 108.657 159.172 108.734 158.848 108.225C158.508 107.691 157.981 107.693 157.445 107.834C157.126 107.917 156.807 108.104 156.901 108.478C156.956 108.699 157.189 108.958 157.404 109.039C157.957 109.25 158.557 109.335 159.114 109.536C159.959 109.842 160.24 110.377 160.089 111.262C160.066 111.397 160.043 111.549 159.968 111.657C159.314 112.592 158.337 112.665 157.335 112.568C156.415 112.479 155.904 111.99 155.669 111.095C155.662 111.067 155.69 111.029 155.724 110.931C156.091 110.832 156.509 110.677 156.804 111.112C157.276 111.808 157.905 111.729 158.656 111.509Z" fill="#FBF6F0"/>
<path d="M72.4271 109.531C72.4268 109.188 72.4395 108.943 72.4238 108.699C72.3641 107.773 71.6057 107.366 70.8048 107.841C70.3238 108.126 70.0555 108.548 70.0651 109.133C70.0773 109.866 70.0675 110.599 70.0673 111.332C70.0672 111.673 70.0672 112.015 70.0672 112.4C69.6615 112.4 69.361 112.4 69.0254 112.4C69.0254 110.589 69.0254 108.821 69.0254 106.917C69.4699 107.024 69.8397 107.113 70.0755 107.169C70.8009 107.059 71.4415 106.867 72.0751 106.888C72.9282 106.917 73.404 107.472 73.423 108.32C73.4488 109.472 73.4305 110.624 73.4285 111.776C73.4282 111.947 73.4133 112.118 73.4015 112.365C73.0864 112.365 72.8047 112.365 72.4271 112.365C72.4271 111.432 72.4271 110.531 72.4271 109.531Z" fill="#FBF6F0"/>
<path d="M32.6577 109.752C32.6577 110.682 32.6577 111.513 32.6577 112.394C32.2622 112.394 31.9635 112.394 31.6172 112.394C31.6172 110.596 31.6172 108.829 31.6172 106.927C32.0464 107.024 32.4169 107.107 32.7392 107.18C33.3412 107.072 33.9451 106.87 34.547 106.876C35.5023 106.885 36.0018 107.452 36.0156 108.41C36.0341 109.698 36.0202 110.987 36.0202 112.37C35.6892 112.392 35.4069 112.411 35.0174 112.437C35.0174 111.27 35.0197 110.195 35.0168 109.121C35.0139 108.072 34.7043 107.63 33.986 107.636C33.3081 107.642 32.7197 108.302 32.6603 109.131C32.6479 109.304 32.658 109.48 32.6577 109.752Z" fill="#FBF6F0"/>
<path d="M104.219 107.773C103.077 107.627 102.468 108.114 102.441 109.155C102.414 110.199 102.435 111.244 102.435 112.366C102.087 112.398 101.796 112.426 101.422 112.46C101.422 110.632 101.422 108.871 101.422 107.089C101.857 106.777 102.219 107.045 102.577 107.346C103.156 106.895 103.795 106.769 104.478 106.871C105.236 106.983 105.76 107.444 105.781 108.149C105.822 109.539 105.793 110.932 105.793 112.384C105.45 112.404 105.187 112.419 104.897 112.435C104.857 112.258 104.802 112.126 104.801 111.994C104.793 110.946 104.79 109.897 104.796 108.849C104.799 108.413 104.779 108.001 104.219 107.773Z" fill="#FBF6F0"/>
<path d="M143.013 42.4554C141.801 42.4554 140.588 42.4554 139.271 42.4554C139.338 40.5669 139.401 38.7795 139.466 36.9365C140.058 36.9365 140.604 36.9365 141.283 36.9365C141.293 38.0876 141.303 39.221 141.382 40.5139C142.019 40.7088 142.586 40.7441 143.154 40.7794C143.17 41.2213 143.185 41.6631 143.204 42.2341C143.207 42.3633 143.197 42.4306 143.151 42.4374C143.105 42.4441 143.013 42.4554 143.013 42.4554Z" fill="#FBF6F0"/>
<path d="M155.055 70.3883C154.792 70.4191 154.528 70.4499 154.2 70.4644C154.128 70.398 154.12 70.348 154.116 70.2123C154.12 69.6148 154.12 69.103 154.12 68.5782C153.46 68.5782 152.92 68.5782 152.317 68.5782C152.317 69.1933 152.317 69.7455 152.306 70.3727C152.288 70.4979 152.281 70.548 152.275 70.5981C151.683 70.4976 151.091 70.3972 150.453 70.289C150.453 69.7182 150.453 69.1403 150.453 68.4557C150.994 68.4223 151.532 68.3892 152.211 68.3474C152.219 67.8931 152.226 67.4598 152.338 66.9298C153.619 66.833 154.796 66.833 155.973 66.833C155.982 67.9611 155.992 69.0891 155.887 70.3072C155.533 70.3942 155.294 70.3913 155.055 70.3883Z" fill="#FBF6F0"/>
<path d="M139.409 59.4679C139.172 59.4352 138.935 59.4024 138.747 59.3133C139.276 59.3056 139.259 58.9784 139.258 58.6539C139.256 57.2649 139.261 55.8759 139.253 54.487C139.252 54.2586 139.2 54.0305 139.167 53.7646C138.939 53.7646 138.768 53.7646 138.598 53.7646C138.831 53.7036 139.065 53.6427 139.375 53.585C140.035 53.5882 140.618 53.5882 141.258 53.5882C141.258 55.4955 141.258 57.3147 141.258 59.2407C141.785 59.2407 142.296 59.2407 142.914 59.3003C143.028 59.4082 143.034 59.4567 143.041 59.5051C143.041 59.5051 143.029 59.4935 142.939 59.4852C142.268 59.4783 141.687 59.4797 141.014 59.4616C140.418 59.4507 139.913 59.4593 139.409 59.4679Z" fill="#FBF6F0"/>
<path d="M39.7735 109.917C39.8966 110.257 39.9939 110.517 40.1586 110.957C40.8381 109.63 41.1239 108.313 41.644 107.033C41.9782 107.033 42.3107 107.033 42.7289 107.033C42.037 108.859 41.3631 110.638 40.6892 112.417C40.3052 112.417 39.9958 112.417 39.6088 112.417C38.9921 110.654 38.3741 108.888 37.7266 107.037C38.1049 107.01 38.404 106.988 38.7958 106.96C39.1193 107.938 39.4335 108.887 39.7735 109.917Z" fill="#FBF6F0"/>
<path d="M155.933 59.239C156.013 61.1024 156.013 62.9151 156.013 64.7981C155.433 64.7981 154.856 64.7981 154.201 64.7981C154.201 62.9521 154.201 61.1179 154.201 59.1885C154.752 59.1885 155.303 59.1885 155.933 59.239Z" fill="#FBF6F0"/>
<path d="M152.012 106.101C152.273 105.831 152.526 105.644 152.906 105.364C152.944 105.995 152.97 106.433 152.998 106.904C153.34 106.945 153.642 106.981 153.915 107.014C154.226 107.958 153.403 107.635 152.961 107.943C152.961 108.93 152.958 110.002 152.962 111.074C152.964 111.454 153.147 111.672 153.546 111.626C153.959 111.579 154.194 111.785 154.092 112.152C154.041 112.335 153.711 112.537 153.489 112.56C152.228 112.69 151.935 112.2 151.987 111.274C152.047 110.193 152.001 109.106 152.001 107.97C151.86 107.895 151.71 107.828 151.574 107.741C151.124 107.457 151.108 107.126 151.606 106.996C152.158 106.852 151.941 106.484 152.012 106.101Z" fill="#FBF6F0"/>
<path d="M139.248 61.2545C139.28 61.1525 139.325 61.1481 139.524 61.1214C140.14 61.0959 140.603 61.0926 141.087 61.1125C141.109 61.1357 141.153 61.1821 141.153 61.1821C141.153 63.0212 141.153 64.8602 141.153 66.7674C140.528 66.7674 139.959 66.7674 139.261 66.7674C139.261 64.9496 139.261 63.1509 139.248 61.2545Z" fill="#FBF6F0"/>
<path d="M49.0101 105.649C49.0409 106.108 49.0409 106.485 49.0409 106.905C49.4317 106.952 49.7291 106.989 50.018 107.024C50.2996 107.957 49.533 107.658 49.1184 107.854C49.1184 109.06 49.1184 110.295 49.1184 111.561C49.4489 111.594 49.72 111.621 50.0485 111.654C50.0898 111.791 50.2049 111.967 50.1675 112.101C50.1201 112.271 49.9786 112.49 49.8267 112.544C48.7777 112.915 48.0539 112.385 48.0458 111.257C48.0378 110.142 48.044 109.028 48.044 108.157C47.7164 107.745 47.5281 107.508 47.3398 107.271C47.5368 107.124 47.7338 106.977 48.0122 106.77C48.0283 106.569 48.0528 106.261 48.0885 105.814C48.3573 105.74 48.6683 105.654 49.0101 105.649Z" fill="#FBF6F0"/>
<path d="M148.656 44.3226C148.656 44.3226 148.569 44.3349 148.525 44.34C147.963 44.3452 147.444 44.3452 146.773 44.3452C146.773 43.7677 146.773 43.2281 146.741 42.5209C146.145 42.32 145.583 42.2868 145.02 42.2536C144.998 41.8233 144.976 41.393 145.064 40.8691C146.337 40.7716 147.499 40.7676 148.661 40.7637C148.662 41.8375 148.663 42.9114 148.667 44.1205C148.669 44.2557 148.656 44.3226 148.656 44.3226Z" fill="#FBF6F0"/>
<path d="M141.187 70.4006C141.187 71.1197 141.187 71.7391 141.187 72.3971C140.517 72.3971 139.97 72.3971 139.344 72.3971C139.344 71.1316 139.344 69.8993 139.344 68.5889C139.904 68.5889 140.476 68.5889 141.187 68.5889C141.187 69.1451 141.187 69.723 141.187 70.4006Z" fill="#FBF6F0"/>
<path d="M144.959 52.0434C144.967 53.2741 144.967 54.4115 144.967 55.5737C144.266 55.5737 143.689 55.5737 143.084 55.5737C143.084 54.2875 143.084 53.0558 143.084 51.7451C143.751 51.7764 144.379 51.4584 144.959 52.0434Z" fill="#FBF6F0"/>
<path d="M148.024 54.5271C148.417 54.5307 148.669 54.5808 148.666 54.9768C148.659 56.0171 148.664 57.0576 148.664 58.1606C147.971 58.1606 147.361 58.1606 146.634 58.1606C146.663 56.9845 146.478 55.8197 146.804 54.5264C147.193 54.5264 147.564 54.5264 148.024 54.5271Z" fill="#FBF6F0"/>
<path d="M152.445 72.2814C152.398 72.861 152.333 73.44 152.31 74.0206C152.287 74.6028 152.305 75.1867 152.305 75.817C151.64 75.817 151.072 75.817 150.455 75.817C150.455 74.6213 150.455 73.4839 150.455 72.2554C150.996 72.2147 151.538 72.1738 152.19 72.1426C152.333 72.2112 152.382 72.2543 152.445 72.2814Z" fill="#FBF6F0"/>
<path d="M143.027 42.5527C143.013 42.4554 143.105 42.4441 143.246 42.4486C143.878 42.4496 144.369 42.446 144.861 42.4424C144.861 43.6572 144.861 44.8721 144.861 46.1657C144.33 46.1657 143.758 46.1657 143.04 46.1657C143.04 45.0002 143.04 43.8251 143.027 42.5527Z" fill="#FBF6F0"/>
<path d="M144.948 73.7782C144.948 74.5013 144.948 75.1232 144.948 75.8096C144.306 75.8096 143.736 75.8096 143.107 75.8096C143.107 74.6443 143.107 73.507 143.107 72.2764C143.661 72.2764 144.227 72.2764 144.948 72.2764C144.948 72.733 144.948 73.205 144.948 73.7782Z" fill="#FBF6F0"/>
<path d="M148.485 38.675C147.277 38.675 146.07 38.675 144.742 38.675C144.742 38.1258 144.742 37.6532 144.853 37.086C146.136 36.9904 147.308 36.9893 148.48 36.9883C148.49 37.494 148.501 37.9997 148.497 38.5961C148.482 38.6868 148.485 38.675 148.485 38.675Z" fill="#FBF6F0"/>
<path d="M45.4823 110.118C45.4823 110.916 45.4823 111.611 45.4823 112.379C45.1533 112.404 44.8921 112.425 44.5488 112.452C44.5488 110.636 44.5488 108.875 44.5488 107.03C44.8009 107.011 45.0621 106.99 45.4823 106.958C45.4823 108.014 45.4823 109.014 45.4823 110.118Z" fill="#FBF6F0"/>
<path d="M148.757 40.7448C147.499 40.7679 146.337 40.7718 145.082 40.7782C145.227 40.7058 145.464 40.5726 145.704 40.5661C146.638 40.5409 147.573 40.5559 148.601 40.5559C148.601 39.9277 148.601 39.3831 148.543 38.7571C148.484 38.6755 148.482 38.6874 148.476 38.6897C148.968 38.6828 149.466 38.6735 150.134 38.665C150.406 38.6711 150.508 38.6763 150.611 38.6815C150.581 39.3194 150.551 39.9574 150.514 40.7257C149.925 40.7257 149.388 40.7257 148.757 40.7448Z" fill="#FBF6F0"/>
<path d="M28.49 112.421C28.344 112.319 28.2549 112.23 28.2544 112.141C28.2461 110.465 28.2483 108.789 28.2483 107.043C28.5256 107.02 28.7541 107.001 28.9626 106.983C29.0273 107.071 29.1034 107.126 29.104 107.181C29.1204 108.757 29.1215 110.332 29.1444 111.907C29.1503 112.317 28.9916 112.488 28.49 112.421Z" fill="#FBF6F0"/>
<path d="M59.8273 108.459C59.8273 109.816 59.8273 111.069 59.8273 112.377C59.5164 112.377 59.2886 112.377 58.9902 112.377C58.9902 110.624 58.9902 108.861 58.9902 107.039C59.2322 107.039 59.4595 107.039 59.8273 107.039C59.8273 107.472 59.8273 107.914 59.8273 108.459Z" fill="#FBF6F0"/>
<path d="M143.132 59.4764C143.035 59.4565 143.028 59.408 143.009 59.2872C142.996 58.5963 142.996 57.9777 142.996 57.3105C143.669 57.3105 144.246 57.3105 144.888 57.3105C144.888 57.9976 144.888 58.6391 144.888 59.3558C144.316 59.3874 143.769 59.4176 143.132 59.4764Z" fill="#FBF6F0"/>
<path d="M153.975 74.8509C153.955 74.3811 153.981 74.0525 154.498 74.07C154.976 74.0862 155.456 74.0735 155.977 74.0735C155.977 74.7042 155.977 75.2137 155.977 75.8011C155.357 75.8011 154.748 75.8011 154.035 75.8011C154.017 75.5397 153.996 75.2418 153.975 74.8509Z" fill="#FBF6F0"/>
<path d="M140.818 74.1885C141.49 74.71 141.088 75.3265 141.149 75.9509C140.507 75.9509 139.935 75.9509 139.312 75.9509C139.312 75.375 139.312 74.8631 139.312 74.2061C139.783 74.199 140.256 74.192 140.818 74.1885Z" fill="#FBF6F0"/>
<path d="M146.768 74.6598C146.76 74.2839 146.857 74.0871 147.173 74.0842C147.621 74.08 148.07 74.0831 148.591 74.0831C148.591 74.6873 148.591 75.2187 148.591 75.8142C148.006 75.8142 147.435 75.8142 146.768 75.8142C146.768 75.4333 146.768 75.0939 146.768 74.6598Z" fill="#FBF6F0"/>
<path d="M152.542 72.2896C152.382 72.2543 152.332 72.2112 152.277 72.107C152.251 71.6347 152.247 71.2076 152.257 70.6897C152.28 70.5488 152.287 70.4987 152.393 70.3859C153.032 70.315 153.572 70.3069 154.111 70.2988C154.119 70.3488 154.126 70.3988 154.144 70.5239C154.154 71.1164 154.154 71.6338 154.154 72.2979C153.65 72.2979 153.145 72.2979 152.542 72.2896Z" fill="#FBF6F0"/>
<path d="M150.702 38.6802C150.507 38.6764 150.404 38.6711 150.225 38.6647C150.167 38.1682 150.185 37.6729 150.31 37.0846C151.008 36.9928 151.6 36.9941 152.192 36.9954C152.192 37.504 152.192 38.0126 152.192 38.6531C151.722 38.6618 151.258 38.6703 150.702 38.6802Z" fill="#FBF6F0"/>
<path d="M154.152 40.7716C154.165 41.1905 154.177 41.6094 154.176 42.1763C154.164 42.3634 154.166 42.4026 154.168 42.4418C154.168 42.4418 154.153 42.4564 154.053 42.4611C153.398 42.4679 152.843 42.4699 152.287 42.472C152.287 42.472 152.273 42.4564 152.269 42.3903C152.26 42.2851 152.255 42.2461 152.251 42.207C152.248 41.7877 152.245 41.3684 152.351 40.8594C153.025 40.7703 153.589 40.771 154.152 40.7716Z" fill="#FBF6F0"/>
<path d="M141.106 59.4811C141.687 59.4796 142.268 59.4782 142.947 59.4816C143.046 59.9058 143.047 60.325 143.039 60.8333C143.026 60.9681 143.022 61.0138 143.012 61.1282C142.45 61.1899 141.894 61.1828 141.246 61.179C141.154 61.1824 141.11 61.136 141.096 61.0268C141.09 60.4388 141.098 59.9599 141.106 59.4811Z" fill="#FBF6F0"/>
<path d="M58.9821 105.742C58.6708 105.341 58.8258 105.073 59.1422 104.948C59.3266 104.875 59.6512 104.904 59.7851 105.027C59.9143 105.145 59.9749 105.487 59.8979 105.652C59.7133 106.05 59.3636 105.99 58.9821 105.742Z" fill="#FBF6F0"/>
<path d="M29.0291 105.874C28.8216 105.911 28.6304 105.965 28.5619 105.897C28.3887 105.724 28.1373 105.479 28.1596 105.293C28.1993 104.96 28.5432 104.77 28.8583 104.903C29.0491 104.984 29.1747 105.271 29.272 105.491C29.3053 105.566 29.1632 105.719 29.0291 105.874Z" fill="#FBF6F0"/>
<path d="M155.937 66.7562C154.795 66.8337 153.618 66.8337 152.341 66.8367C151.695 66.8019 151.148 66.7642 150.559 66.6682C151.051 66.6105 151.586 66.611 152.215 66.6084C153.506 66.6298 154.704 66.6543 155.937 66.7562Z" fill="#FBF6F0"/>
<path d="M45.1901 104.892C45.6317 105.518 45.5948 105.845 45.1458 105.917C44.7835 105.975 44.5032 105.817 44.4624 105.461C44.4125 105.024 44.7133 104.868 45.1901 104.892Z" fill="#FBF6F0"/>
<path d="M148.441 36.906C147.308 36.9898 146.136 36.9908 144.871 36.9942C144.912 36.9224 145.046 36.7845 145.181 36.7843C146.255 36.7826 147.329 36.807 148.441 36.906Z" fill="#FBF6F0"/>
<path d="M144.959 42.43C144.37 42.4457 143.879 42.4493 143.292 42.4416C143.198 42.4303 143.208 42.363 143.211 42.3291C143.75 42.2992 144.285 42.3031 144.921 42.2803C145.583 42.2867 146.146 42.3199 146.749 42.4278C146.212 42.4743 145.635 42.446 144.959 42.43Z" fill="#FBF6F0"/>
<path d="M152.164 36.9169C151.6 36.9935 151.009 36.9922 150.328 36.9929C150.84 36.5546 151.498 36.8156 152.164 36.9169Z" fill="#FBF6F0"/>
<path d="M154.258 42.4488C154.167 42.4022 154.165 42.363 154.169 42.2653C154.722 42.2584 155.268 42.31 155.861 42.416C155.387 42.4656 154.868 42.4609 154.258 42.4488Z" fill="#FBF6F0"/>
<path d="M152.168 42.2402C152.256 42.2463 152.26 42.2853 152.262 42.3832C151.735 42.4507 151.211 42.4593 150.604 42.4696C151.042 42.4052 151.563 42.3392 152.168 42.2402Z" fill="#FBF6F0"/>
<path d="M154.118 40.6908C153.588 40.7707 153.025 40.77 152.367 40.7703C152.845 40.3567 153.475 40.5979 154.118 40.6908Z" fill="#FBF6F0"/>
<path d="M143.128 40.701C142.588 40.7442 142.02 40.7089 141.398 40.6106C141.93 40.5725 142.515 40.5975 143.128 40.701Z" fill="#FBF6F0"/>
<path d="M148.395 46.1025C148 46.1478 147.517 46.1975 146.949 46.2448C147.346 46.1973 147.827 46.1521 148.395 46.1025Z" fill="#FBF6F0"/>
<path d="M148.749 44.3338C148.656 44.3223 148.669 44.2554 148.673 44.2217C149.181 44.1969 149.684 44.2059 150.281 44.2105C149.863 44.2525 149.352 44.2989 148.749 44.3338Z" fill="#FBF6F0"/>
<path d="M155.105 70.4226C155.292 70.3921 155.531 70.3951 155.841 70.3961C155.66 70.4148 155.409 70.4354 155.105 70.4226Z" fill="#FBF6F0"/>
<path d="M139.359 51.8457C139.146 51.879 138.919 51.8397 138.652 51.7435C138.857 51.7155 139.101 51.7443 139.359 51.8457Z" fill="#FBF6F0"/>
<path d="M135.694 73.9403C135.72 74.4135 135.611 74.6203 135.175 74.6147C133.716 74.5957 132.255 74.6074 130.727 74.6074C130.727 72.9243 130.727 71.3084 130.727 69.6309C132.368 69.6309 133.983 69.6309 135.695 69.6309C135.695 71.0668 135.695 72.4526 135.694 73.9403Z" fill="#FBF6F0"/>
<path d="M164.695 40.7839C164.695 42.0363 164.695 43.1855 164.695 44.4039C163.069 44.4039 161.515 44.4039 159.885 44.4039C159.885 42.7771 159.885 41.1642 159.885 39.502C161.48 39.502 163.031 39.502 164.695 39.502C164.695 39.9312 164.695 40.3059 164.695 40.7839Z" fill="#FBF6F0"/>
</g>
<defs>
<clipPath id="clip0_385_57">
<rect width="186" height="120" fill="white"/>
</clipPath>
</defs>
</svg>
