<svg width="100" height="65" viewBox="0 0 100 65" fill="none" xmlns="http://www.w3.org/2000/svg">
<g clip-path="url(#clip0_255_212)">
<path d="M58.0227 42.0089C46.197 42.0089 34.4277 42.0181 22.6586 42.0014C20.1933 41.9979 17.7462 41.7452 15.3583 41.0832C13.1714 40.4769 11.1542 39.5308 9.50757 37.9187C8.40192 36.8362 7.58715 35.5479 7.04062 34.0907C6.51933 32.7008 6.2253 31.2626 6.14305 29.7816C6.10111 29.0265 6.05251 28.269 6.06972 27.514C6.11907 25.3491 6.46415 23.2291 7.07405 21.1505C7.20178 20.7151 7.40978 20.5255 7.87597 20.4576C9.73475 20.1869 11.5856 19.8607 13.4396 19.5565C13.5861 19.5324 13.7345 19.5194 13.8924 19.4999C13.6248 20.3264 13.339 21.12 13.1109 21.9302C12.4752 24.1884 12.2212 26.4943 12.3992 28.8359C12.5013 30.1793 12.7701 31.4937 13.3836 32.7097C14.2289 34.3855 15.6049 35.4379 17.3223 36.0845C18.6532 36.5857 20.0389 36.8784 21.4471 36.9231C24.2856 37.0132 27.127 37.0139 29.9673 37.0494C30.0384 37.0502 30.1098 37.027 30.2299 37.0068C30.2299 31.2748 30.2299 25.5529 30.2299 19.7911C32.343 19.7911 34.4044 19.7911 36.5227 19.7911C36.5227 25.5285 36.5227 31.247 36.5227 36.9501C36.9854 37.0731 57.7332 37.1045 58.4355 36.9925C58.478 36.7501 58.5526 36.496 58.5625 36.2394C58.6117 34.9536 58.7022 33.6654 58.666 32.3812C58.6297 31.0948 58.3975 29.8257 57.8798 28.6301C57.0387 26.6879 55.5426 25.5104 53.5559 24.9474C52.0449 24.5191 50.4944 24.3853 48.9262 24.4763C47.3551 24.5674 45.7839 24.6576 44.1784 24.7501C44.1784 23.1837 44.1784 21.5796 44.1784 19.9095C44.7189 19.8418 45.2688 19.7414 45.8226 19.7093C47.4535 19.6147 49.0864 19.4751 50.7175 19.4865C52.938 19.5021 55.1365 19.756 57.2666 20.4681C61.0401 21.7295 63.3885 24.2983 64.3382 28.1791C64.613 29.3018 64.7986 30.4363 64.8223 31.5956C64.8404 32.4841 64.9319 33.3756 64.8847 34.2601C64.7993 35.8619 64.6513 37.4611 64.4971 39.0582C64.4047 40.0158 64.2508 40.9674 64.1317 41.8679C64.0791 41.928 64.0681 41.943 64.0546 41.9553C64.0408 41.968 64.0246 41.9878 64.0094 41.9878C62.0326 41.9958 60.0559 42.0023 58.0227 42.0089Z" fill="#805B55"/>
<path d="M74.9306 28.1225C74.9397 28.3907 74.9487 28.659 74.9247 28.9753C74.766 29.0565 74.6404 29.0895 74.5096 29.177C74.5105 30.1862 74.5165 31.1409 74.5455 32.127C74.6961 32.1763 74.8235 32.194 74.9505 32.2623C74.9675 32.5786 74.985 32.8445 74.9664 33.115C74.906 33.1221 74.8818 33.1244 74.8577 33.1268C74.7642 33.1325 74.6706 33.1383 74.5023 33.1486C74.5023 33.3532 74.5023 33.5539 74.5023 33.7545C74.5023 35.898 74.5182 38.0416 74.4963 40.1848C74.4834 41.4516 74.36 42.7124 74.0466 43.9451C73.2433 47.1054 71.2649 49.1044 68.1534 49.9797C66.879 50.3382 65.579 50.4864 64.2582 50.5077C62.9952 50.528 61.7426 50.4579 60.5054 50.189C60.3783 50.1614 60.2539 50.1218 60.0867 50.0765C60.2423 48.6084 60.3967 47.1524 60.5569 45.641C61.028 45.7385 61.477 45.8421 61.9301 45.9232C63.0838 46.1297 64.2411 46.2027 65.4045 45.9944C66.7859 45.7471 67.7022 44.946 68.205 43.6379C68.479 42.9252 68.6167 42.1818 68.6535 41.4266C68.7068 40.3306 68.734 39.2323 68.7355 38.1349C68.743 32.2926 68.739 26.4502 68.739 20.6079C68.739 20.3847 68.739 20.1615 68.739 19.8626C70.6899 19.9017 72.5775 19.7667 74.5057 19.981C74.5057 22.6629 74.5057 25.2775 74.5354 27.9753C74.6869 28.0798 74.8087 28.1012 74.9306 28.1225ZM73.487 39.3286C73.4854 38.598 73.4904 37.8672 73.4837 37.1411C72.1654 37.1411 70.9311 37.1411 69.6751 37.1411C69.6751 38.4264 69.6751 39.6826 69.6751 40.9619C70.9239 40.9619 72.1391 40.9619 73.3823 40.9619C73.5836 40.4563 73.446 39.9409 73.487 39.3286Z" fill="#805B55"/>
<path d="M80.8463 23.9451C80.8561 23.6624 80.8659 23.3798 80.945 23.0502C81.2959 22.9986 81.5777 22.9939 81.8635 22.9931C81.8676 22.9971 81.8752 23.0055 81.8772 23.0558C81.8792 23.3828 81.8792 23.6596 81.8792 23.9449C82.2455 23.9449 82.5353 23.9449 82.8705 23.9449C82.8705 23.6062 82.8705 23.3059 82.8743 23.0013C82.8781 22.9971 82.8863 22.9892 82.9344 22.9932C83.262 22.9997 83.5415 23.0023 83.8209 23.0048C83.8468 23.3186 83.8727 23.6324 83.902 23.9882C83.553 24.0107 83.2613 24.0295 82.9362 24.0505C82.9362 24.3275 82.9362 24.5848 82.9362 24.9005C83.2123 24.9172 83.5046 24.9349 83.8596 24.9563C83.8596 25.2675 83.8596 25.5785 83.8596 25.9232C84.0803 25.9368 84.2406 25.9466 84.4667 25.9605C84.4667 21.7096 84.4667 17.491 84.4667 13.2383C86.3262 13.2383 88.1222 13.2383 89.9509 13.2383C89.9509 22.7678 89.9509 32.279 89.9509 41.8171C88.1239 41.8171 86.3276 41.8171 84.4787 41.8171C84.4787 38.2613 84.4787 34.7413 84.4787 31.1608C83.9299 31.1608 83.4306 31.1608 82.8982 31.1608C82.8982 30.7712 82.8982 30.4423 82.8982 30.061C83.4137 30.061 83.9145 30.061 84.4465 30.061C84.4465 29.7364 84.4465 29.4621 84.4465 29.1244C83.9454 29.1244 83.4468 29.1244 82.9063 29.1244C82.9063 28.7534 82.9063 28.4434 82.9063 28.0744C83.4036 28.0744 83.9034 28.0744 84.4412 28.0744C84.4412 27.7241 84.4412 27.4311 84.4412 27.0735C83.9433 27.0735 83.4448 27.0735 82.8791 27.0735C82.8791 26.3815 82.8791 25.7486 82.8791 25.083C82.5221 25.083 82.2338 25.083 81.9066 25.083C81.8925 25.4013 81.8794 25.6991 81.864 26.0459C81.5843 26.0609 81.3094 26.0756 80.9894 26.0928C80.9894 26.3661 80.9894 26.6374 80.9894 26.957C81.2508 26.9702 81.5253 26.9841 81.8411 27.0001C81.8411 27.6812 81.8411 28.353 81.8411 29.0647C81.537 29.0647 81.2297 29.0647 80.8687 29.0647C80.8687 28.4017 80.8687 27.7647 80.8687 27.0922C80.5452 27.0922 80.2735 27.0922 79.95 27.0922C79.95 27.7329 79.95 28.3708 79.95 29.056C79.5938 29.056 79.288 29.056 78.9172 29.056C78.9172 27.7499 78.9172 26.4481 78.984 25.0983C79.3103 25.0234 79.5698 24.9965 79.8294 24.9696C79.8337 24.6878 79.838 24.406 79.8589 24.0695C79.8755 24.0147 79.9224 24.008 79.9723 24.0142C80.2968 23.9953 80.5716 23.9702 80.8463 23.9451ZM88.1283 24.6673C88.4422 24.6673 88.756 24.6673 89.0749 24.6673C89.0749 23.3382 89.0749 22.0817 89.0749 20.826C87.8213 20.826 86.61 20.826 85.3903 20.826C85.3903 22.1165 85.3903 23.3698 85.3903 24.6673C86.2948 24.6673 87.1559 24.6673 88.1283 24.6673ZM79.9473 25.1272C79.9473 25.4168 79.9473 25.7065 79.9473 25.9957C80.2853 25.9957 80.5554 25.9957 80.8331 25.9957C80.8331 25.6671 80.8331 25.3773 80.8331 25.0592C80.542 25.0592 80.285 25.0592 79.9473 25.1272Z" fill="#805B55"/>
<path d="M89.2364 1.87842C89.8166 1.88348 90.3446 1.86764 90.8699 1.89909C91.466 1.93478 92.0596 2.0128 92.6409 2.07107C92.7444 2.52678 92.4703 4.6064 92.1914 5.59393C91.4106 5.53203 90.6296 5.47478 89.8496 5.40674C89.2819 5.35723 88.7276 5.41808 88.1967 5.61891C87.415 5.91459 86.9275 6.57418 86.9476 7.33864C86.9694 8.17138 87.3629 8.77312 88.1346 9.11071C88.9076 9.44886 89.7253 9.548 90.5546 9.5616C91.4767 9.57671 92.3992 9.56433 93.3215 9.56622C93.4306 9.56644 93.5396 9.58114 93.6789 9.59134C93.6789 10.7457 93.6789 11.8751 93.6789 13.0054C93.2803 13.1178 81.7034 13.1625 80.6404 13.0512C80.6404 11.9123 80.6404 10.769 80.6404 9.54625C81.5253 9.58141 82.3935 9.61591 83.2783 9.65107C83.1065 9.3802 82.9264 9.13996 82.7921 8.87602C82.4019 8.10924 82.4509 7.28231 82.5943 6.48171C82.9722 4.3722 84.3122 3.1004 86.2538 2.39862C87.1992 2.05693 88.183 1.91722 89.2364 1.87842Z" fill="#805B55"/>
<path d="M19.1346 48.0599C19.8543 45.9286 22.1978 45.1612 23.9872 46.2464C25.2105 46.9883 25.7796 48.505 25.3837 49.9545C25.0088 51.3271 23.7596 52.2824 22.3543 52.3316C20.8899 52.3828 19.4699 51.4597 19.0955 49.902C18.9539 49.3126 18.955 48.7019 19.1346 48.0599Z" fill="#805B55"/>
<path d="M80.9223 36.0802C80.9029 35.6291 80.875 35.178 80.8664 34.7266C80.8566 34.2179 80.8641 33.7089 80.8641 33.1656C80.5518 33.1656 80.2794 33.1656 79.9404 33.1656C79.9404 33.8134 79.9404 34.4649 79.9404 35.1469C78.9049 35.1469 77.9343 35.1469 76.8797 35.1469C76.868 34.5225 76.8761 33.8869 76.8831 33.1629C76.8937 33.0492 76.8958 33.0244 76.898 32.9996C77.2283 33.0379 77.5587 33.0762 77.9027 33.1161C77.9218 33.4324 77.9398 33.7293 77.9597 34.058C78.2638 34.058 78.5377 34.058 78.8854 34.058C78.8854 33.4232 78.8854 32.793 78.8854 32.114C79.5686 32.114 80.181 32.114 80.8558 32.114C80.8558 31.3961 80.8558 30.726 80.8558 30.0264C81.2122 30.0264 81.5051 30.0264 81.8808 30.0264C81.8819 32.0144 81.8829 33.9932 81.8348 36.0266C81.4978 36.0808 81.2101 36.0805 80.9223 36.0802Z" fill="#805B55"/>
<path d="M47.0597 57.8829C47.3447 57.9637 47.5859 58.0444 47.898 58.1487C48.1681 57.9553 48.5451 57.8122 48.9795 57.897C49.3666 57.9726 49.5597 58.1485 49.569 58.5393C49.5874 59.3119 49.5744 60.0851 49.5744 60.8793C49.3896 60.8793 49.247 60.8793 49.0671 60.8793C49.0671 60.2877 49.0675 59.7219 49.0668 59.156C49.0667 59.0235 49.0814 58.8875 49.0576 58.759C48.9775 58.3265 48.5434 58.177 48.2034 58.457C47.928 58.6839 47.8829 58.9975 47.8822 59.3268C47.8811 59.8358 47.8819 60.3448 47.8819 60.8793C47.7016 60.8793 47.559 60.8793 47.3722 60.8793C47.3722 60.445 47.3722 60.0318 47.3722 59.6186C47.3722 59.3913 47.3769 59.1638 47.3711 58.9367C47.3604 58.516 47.202 58.3037 46.9008 58.2943C46.5949 58.2849 46.2682 58.6019 46.2602 58.9569C46.2461 59.5794 46.2562 60.2026 46.2562 60.8662C46.0661 60.8814 45.9087 60.894 45.7129 60.9097C45.7129 59.9179 45.7129 58.9625 45.7129 57.9322C45.8989 57.9744 46.0696 58.0132 46.3364 58.0738C46.4852 58.032 46.7506 57.9573 47.0597 57.8829Z" fill="#805B55"/>
<path d="M70.8039 59.2166C70.8021 59.0116 70.8161 58.8578 70.7953 58.709C70.7484 58.3731 70.433 58.2103 70.1242 58.3605C69.8258 58.5055 69.6826 58.7425 69.6904 59.088C69.7035 59.6736 69.694 60.2596 69.694 60.8766C69.4982 60.8766 69.3368 60.8766 69.1421 60.8766C69.1421 59.915 69.1421 58.9571 69.1421 57.926C69.3598 57.9713 69.5521 58.0113 69.8305 58.0693C70.261 57.7705 70.7798 57.7599 71.2793 58.2052C71.6375 57.9349 72.0168 57.8047 72.452 57.9014C72.8308 57.9856 73.0209 58.1641 73.031 58.5573C73.0503 59.3123 73.0366 60.0682 73.0366 60.8651C72.8517 60.8651 72.6998 60.8651 72.4988 60.8651C72.4988 60.299 72.4989 59.7531 72.4987 59.2072C72.4986 59.0745 72.4959 58.9419 72.4972 58.8093C72.4995 58.5673 72.372 58.386 72.1555 58.3534C71.9943 58.3292 71.7896 58.3875 71.6493 58.4791C71.3909 58.6476 71.3426 58.938 71.3432 59.233C71.3442 59.7615 71.3435 60.29 71.3435 60.8695C71.1625 60.8796 71.0106 60.888 70.8039 60.8996C70.8039 60.3238 70.8039 59.797 70.8039 59.2166Z" fill="#805B55"/>
<path d="M63.6689 61.0975C63.679 60.9421 63.679 60.8306 63.679 60.693C63.4442 60.798 63.2535 60.9249 63.0457 60.9681C62.4576 61.0904 61.8489 60.6712 61.6833 60.0434C61.5591 59.5725 61.5881 59.0984 61.7686 58.6481C62.0811 57.8684 62.8408 57.6695 63.5822 58.1097C63.7945 58.037 63.968 57.9776 64.2244 57.8898C64.2244 58.3719 64.2244 58.7647 64.2243 59.1575C64.2243 59.7266 64.2534 60.2976 64.2182 60.8645C64.1373 62.1652 63.3516 62.2968 62.3754 62.1021C62.0073 62.0287 61.7782 61.7294 61.7431 61.2928C61.9476 61.2438 62.1158 61.1862 62.2965 61.3796C62.8405 61.9619 63.3472 61.8665 63.6689 61.0975ZM62.1904 59.1814C62.2195 59.4601 62.2183 59.7465 62.2858 60.0153C62.363 60.3226 62.6116 60.4781 62.92 60.4838C63.2254 60.4895 63.4649 60.3518 63.5807 60.0493C63.7502 59.6066 63.7625 59.1563 63.5443 58.734C63.3121 58.2848 62.7283 58.2381 62.4184 58.6338C62.3179 58.7621 62.2711 58.9332 62.1904 59.1814Z" fill="#805B55"/>
<path d="M75.5569 27.0582C75.3194 27.0582 75.1356 27.0582 74.9126 27.0582C74.9126 26.0176 74.9126 25.0271 74.9126 23.9966C75.2386 23.9966 75.5664 23.9966 75.9663 23.9966C75.9663 24.6505 75.9663 25.2992 75.9663 25.9973C76.6468 25.9973 77.2578 25.9973 77.9041 25.9973C77.9041 26.3599 77.9041 26.6708 77.9041 27.0582C77.1327 27.0582 76.3717 27.0582 75.5569 27.0582Z" fill="#805B55"/>
<path d="M79.9278 38.0252C79.9278 38.4171 79.9278 38.7541 79.9278 39.127C79.5789 39.127 79.2731 39.127 78.9193 39.127C78.9193 38.4784 78.9193 37.8429 78.9193 37.1619C78.5868 37.1619 78.2992 37.1619 77.9475 37.1619C77.9475 37.4578 77.9475 37.7681 77.9475 38.1088C77.5773 38.1088 77.2702 38.1088 76.9358 38.1088C76.9358 37.4434 76.9358 36.8081 76.9358 36.1299C77.5863 36.1299 78.2305 36.1299 78.9177 36.1299C78.9342 36.401 78.9509 36.6759 78.9714 37.0133C79.2674 37.0343 79.5559 37.0547 79.9089 37.0797C79.9153 37.3832 79.9216 37.6768 79.9278 38.0252Z" fill="#805B55"/>
<path d="M52.0595 60.9564C51.8661 60.9725 51.7149 60.9897 51.5659 60.9781C51.1072 60.9425 50.7966 60.6593 50.7613 60.2589C50.7161 59.7471 50.8896 59.4681 51.3746 59.3217C51.6619 59.2349 51.9599 59.1848 52.2509 59.1095C52.3904 59.0734 52.5248 59.0169 52.6629 58.9692C52.6707 58.675 52.5857 58.4798 52.3311 58.411C52.0275 58.3288 51.6959 58.3169 51.5098 58.6029C51.3395 58.8643 51.1652 58.9025 50.8401 58.7956C50.9219 58.5946 50.9607 58.3852 51.0765 58.2367C51.4063 57.8138 52.5072 57.7156 52.8923 58.093C53.0497 58.2472 53.1467 58.508 53.1817 58.7344C53.2302 59.0488 53.1865 59.3766 53.197 59.6982C53.2079 60.0321 53.0734 60.4182 53.5056 60.6201C53.5403 60.6363 53.5101 60.7934 53.5101 60.9037C53.1688 61.0628 52.8913 60.9993 52.6807 60.7091C52.4768 60.7921 52.2898 60.8682 52.0595 60.9564ZM52.2196 59.5511C52.005 59.6208 51.7874 59.6824 51.5767 59.7624C51.3888 59.8338 51.2471 59.9611 51.2742 60.1864C51.3013 60.4119 51.4803 60.4907 51.6682 60.5385C52.2732 60.6922 52.745 60.1832 52.6384 59.4836C52.5274 59.5019 52.4165 59.5202 52.2196 59.5511Z" fill="#805B55"/>
<path d="M60.4956 59.8598C60.5307 60.1503 60.3806 60.4348 60.7649 60.5666C60.9396 60.6265 60.8298 60.9728 60.6157 60.966C60.3922 60.9589 60.1716 60.8606 59.9366 60.7987C59.615 60.8555 59.2571 60.9617 58.8966 60.9718C58.4212 60.9852 58.0741 60.6565 58.0361 60.2456C57.991 59.758 58.185 59.465 58.6711 59.3154C58.8863 59.2492 59.11 59.2109 59.3293 59.1574C59.5262 59.1093 59.7222 59.0577 59.9017 59.012C60.0046 58.7089 59.8985 58.5298 59.6653 58.422C59.3877 58.2936 58.9626 58.3598 58.7963 58.6153C58.6241 58.8799 58.4408 58.9087 58.1858 58.8091C58.2416 58.2672 58.4113 58.0411 58.8857 57.9304C59.0839 57.8841 59.2956 57.8745 59.5001 57.8814C60.2056 57.9053 60.483 58.1929 60.4947 58.8959C60.4998 59.1992 60.4956 59.5027 60.4956 59.8598ZM59.6805 60.3575C60.002 60.1402 60.0075 59.84 59.9003 59.4578C59.5486 59.5612 59.2092 59.6548 58.874 59.7619C58.6775 59.8246 58.5564 59.9527 58.5765 60.1835C58.5975 60.4243 58.7815 60.5235 58.9597 60.53C59.1737 60.5379 59.391 60.4534 59.6805 60.3575Z" fill="#805B55"/>
<path d="M30.1221 58.1774C30.2104 58.4631 30.2982 58.7129 30.3188 58.9682C30.3475 59.3251 30.3219 59.6861 30.3278 60.0453C30.331 60.2411 30.26 60.4735 30.5618 60.5429C30.6093 60.5539 30.6726 60.7124 30.649 60.7687C30.6132 60.8542 30.4987 60.9753 30.4331 60.9664C30.2083 60.9357 29.9902 60.8551 29.6754 60.7672C29.4582 60.9392 29.0991 61.0073 28.7184 60.9821C28.2729 60.9525 27.9253 60.6718 27.8684 60.2969C27.795 59.8144 28.0132 59.4573 28.5035 59.3165C28.9138 59.1987 29.3339 59.1153 29.7277 59.0219C29.8365 58.7118 29.7302 58.5325 29.4995 58.4231C29.2258 58.2933 28.83 58.3818 28.6207 58.6032C28.3879 58.8493 28.3879 58.8493 27.9971 58.8009C27.9866 58.4225 28.1557 58.1379 28.4949 58.0109C29.037 57.8079 29.5873 57.7631 30.1221 58.1774ZM28.4054 60.1619C28.6113 60.5457 28.8266 60.6383 29.2105 60.5083C29.7096 60.3392 29.8316 60.104 29.7212 59.4619C29.3968 59.5557 29.0683 59.6279 28.7595 59.7505C28.6217 59.8051 28.5235 59.961 28.4054 60.1619Z" fill="#805B55"/>
<path d="M65.9489 58.0514C66.1455 57.9794 66.3042 57.9075 66.4688 57.889C67.1418 57.8131 67.8851 58.1108 67.9581 59.049C67.9695 59.1946 67.9753 59.3406 67.9873 59.5474C67.2693 59.5474 66.5866 59.5474 65.8748 59.5474C65.8849 59.9991 66.0186 60.3024 66.4098 60.4319C66.7643 60.5493 67.0819 60.4861 67.2942 60.1512C67.4433 59.9161 67.6363 59.8908 67.8729 59.9677C67.7783 60.5795 67.5025 60.8691 66.9258 60.9689C66.3123 61.0751 65.7936 60.8534 65.5191 60.3764C65.1487 59.7325 65.241 58.4603 65.9489 58.0514ZM66.3955 58.4062C66.0859 58.5458 65.8667 58.7438 65.9155 59.1234C66.4143 59.1234 66.8917 59.1234 67.3703 59.1234C67.3264 58.5505 67.1166 58.3842 66.3955 58.4062Z" fill="#805B55"/>
<path d="M76.0438 60.3118C76.2301 60.0196 76.4073 59.8161 76.7498 59.9898C76.603 60.693 76.2592 60.9725 75.5379 60.9811C74.8291 60.9896 74.3306 60.6159 74.2162 59.9183C74.1625 59.5911 74.1686 59.2324 74.2421 58.9098C74.4564 57.9689 75.468 57.5753 76.2857 58.0844C76.6981 58.3412 76.8472 58.712 76.8429 59.5257C76.1553 59.5257 75.4658 59.5257 74.7764 59.5257C74.784 60.3758 75.2319 60.6516 76.0438 60.3118ZM74.8253 58.7825C74.8035 58.8865 74.7817 58.9905 74.7556 59.115C75.2879 59.115 75.7792 59.115 76.2803 59.115C76.0726 58.2903 75.4939 58.138 74.8253 58.7825Z" fill="#805B55"/>
<path d="M33.2461 59.423C33.2657 59.2085 33.2689 59.0359 33.3078 58.8719C33.4651 58.2084 33.9685 57.8514 34.6874 57.8803C35.3251 57.9059 35.7899 58.2984 35.8923 58.9371C35.933 59.1905 35.9323 59.458 35.9043 59.7139C35.8115 60.5625 35.376 60.9793 34.6129 60.9811C33.8415 60.9828 33.3857 60.5701 33.2604 59.7519C33.2462 59.659 33.2504 59.5632 33.2461 59.423ZM35.3772 59.7429C35.3864 59.631 35.4062 59.5188 35.4029 59.4073C35.385 58.8057 35.047 58.3736 34.5982 58.3702C34.1517 58.3668 33.8437 58.7294 33.7792 59.3345C33.7214 59.8761 33.9836 60.3522 34.3985 60.4594C34.8468 60.5753 35.1274 60.3864 35.3772 59.7429Z" fill="#805B55"/>
<path d="M42.9656 59.832C42.973 60.5936 42.6395 60.9618 41.9297 60.9752C41.6546 60.9804 41.3623 60.9433 41.1058 60.8487C40.7948 60.734 40.5695 60.4999 40.6008 60.0838C40.8599 60.019 41.0674 59.9969 41.2713 60.269C41.4809 60.5486 41.9601 60.5641 42.2478 60.3707C42.5015 60.2001 42.4999 59.9288 42.2276 59.7904C42.0796 59.7151 41.9055 59.6926 41.7443 59.6424C41.5299 59.5756 41.3052 59.5287 41.1049 59.4314C40.5663 59.17 40.4782 58.5896 40.899 58.1755C41.4504 57.6329 42.6038 57.8251 42.8684 58.5066C42.894 58.5725 42.884 58.6523 42.8927 58.7506C42.638 58.8401 42.4544 58.8888 42.2717 58.5981C42.1074 58.3367 41.7232 58.291 41.4601 58.4461C41.3607 58.5046 41.2479 58.6364 41.2452 58.7377C41.2425 58.8386 41.3484 58.9937 41.445 59.0358C41.6667 59.1325 41.913 59.1708 42.1471 59.2404C42.4727 59.3371 42.8067 59.425 42.9656 59.832Z" fill="#805B55"/>
<path d="M78.5636 58.8215C78.5436 59.5265 78.5436 60.1852 78.5436 60.8793C78.3133 60.8895 78.1524 60.8966 77.957 60.9052C77.957 59.9165 77.957 58.9609 77.957 57.9936C78.1867 57.9198 78.3967 57.8682 78.4929 58.1045C78.8438 58.0285 79.1824 57.8974 79.5219 57.8951C80.0518 57.8913 80.3045 58.1842 80.3111 58.7144C80.32 59.4291 80.3133 60.144 80.3133 60.8812C80.1261 60.8812 79.9837 60.8812 79.7996 60.8812C79.7996 60.2923 79.8005 59.7283 79.7994 59.1642C79.7984 58.5876 79.7318 58.43 79.3975 58.3409C79.006 58.2366 78.7611 58.4513 78.5636 58.8215Z" fill="#805B55"/>
<path d="M85.2987 60.4007C85.6125 60.0435 85.5985 59.8879 85.2503 59.7567C84.9878 59.6579 84.7038 59.6185 84.4355 59.5331C83.9553 59.3802 83.7451 59.1268 83.7565 58.7449C83.7691 58.3219 84.0598 58.0093 84.5393 57.9032C85.3223 57.73 85.8184 58.0037 86.0139 58.7415C85.7792 58.8561 85.5758 58.8976 85.4018 58.622C85.219 58.3325 84.9356 58.3339 84.6477 58.4099C84.4758 58.4553 84.3048 58.5561 84.3549 58.7588C84.3844 58.8783 84.5101 59.0188 84.6254 59.063C84.9227 59.1769 85.2452 59.2229 85.5447 59.3321C85.9991 59.4978 86.15 59.7877 86.0691 60.2666C86.0567 60.3401 86.0444 60.4223 86.0039 60.4807C85.6522 60.9875 85.1272 61.027 84.5885 60.9743C84.0935 60.9258 83.8189 60.661 83.6928 60.1762C83.6888 60.161 83.7038 60.1408 83.7221 60.0878C83.9197 60.034 84.1445 59.9499 84.3029 60.1855C84.5566 60.5625 84.8948 60.52 85.2987 60.4007Z" fill="#805B55"/>
<path d="M38.9395 59.3294C38.9393 59.1435 38.9461 59.0106 38.9377 58.8788C38.9056 58.3772 38.4978 58.1567 38.0673 58.4139C37.8087 58.5684 37.6644 58.7969 37.6696 59.1137C37.6761 59.5107 37.6709 59.9078 37.6707 60.3049C37.6707 60.4898 37.6707 60.6746 37.6707 60.8835C37.4526 60.8835 37.291 60.8835 37.1106 60.8835C37.1106 59.9021 37.1106 58.9449 37.1106 57.9136C37.3496 57.9714 37.5484 58.0194 37.6752 58.0501C38.0652 57.9903 38.4096 57.8865 38.7502 57.8978C39.2089 57.9132 39.4647 58.2141 39.4749 58.6735C39.4888 59.2972 39.479 59.9215 39.4779 60.5455C39.4777 60.6381 39.4697 60.7307 39.4634 60.8645C39.2939 60.8645 39.1425 60.8645 38.9395 60.8645C38.9395 60.3592 38.9395 59.8711 38.9395 59.3294Z" fill="#805B55"/>
<path d="M17.5577 59.4491C17.5577 59.9526 17.5577 60.403 17.5577 60.8799C17.3451 60.8799 17.1845 60.8799 16.9983 60.8799C16.9983 59.906 16.9983 58.9488 16.9983 57.9185C17.2291 57.971 17.4282 58.0163 17.6015 58.0558C17.9252 57.9971 18.2498 57.8881 18.5734 57.8912C19.087 57.896 19.3556 58.2029 19.363 58.7221C19.373 59.4199 19.3655 60.1179 19.3655 60.8671C19.1875 60.879 19.0358 60.8892 18.8264 60.9032C18.8264 60.2712 18.8276 59.6891 18.826 59.107C18.8245 58.5388 18.6581 58.2993 18.2719 58.3029C17.9074 58.3062 17.591 58.6636 17.5591 59.1124C17.5524 59.2065 17.5578 59.3014 17.5577 59.4491Z" fill="#805B55"/>
<path d="M56.0313 58.3769C55.4176 58.2983 55.0898 58.5619 55.0754 59.1255C55.061 59.691 55.0722 60.2572 55.0722 60.8651C54.8854 60.8826 54.7285 60.8973 54.5276 60.9161C54.5276 59.9257 54.5276 58.9717 54.5276 58.0065C54.7614 57.8378 54.956 57.9828 55.1485 58.1459C55.46 57.9015 55.8033 57.8335 56.1708 57.8885C56.5782 57.9493 56.86 58.1987 56.8712 58.5808C56.8934 59.334 56.8778 60.0882 56.8778 60.8749C56.6934 60.8854 56.5521 60.8934 56.3958 60.9023C56.3742 60.8063 56.3448 60.7351 56.3443 60.6637C56.3399 60.0958 56.3382 59.5278 56.3418 58.96C56.3432 58.7238 56.3325 58.5007 56.0313 58.3769Z" fill="#805B55"/>
<path d="M76.8891 22.9965C76.2374 22.9965 75.5857 22.9965 74.8777 22.9965C74.9135 21.9735 74.9473 21.0053 74.9822 20.0071C75.3008 20.0071 75.5938 20.0071 75.9589 20.0071C75.9645 20.6306 75.97 21.2445 76.0124 21.9448C76.3547 22.0504 76.6599 22.0695 76.9651 22.0887C76.9735 22.328 76.9819 22.5673 76.9919 22.8766C76.9934 22.9466 76.988 22.983 76.9633 22.9867C76.9386 22.9904 76.8891 22.9965 76.8891 22.9965Z" fill="#805B55"/>
<path d="M83.3622 38.1272C83.2206 38.1439 83.0789 38.1606 82.9024 38.1684C82.8635 38.1324 82.8595 38.1054 82.8575 38.0319C82.8595 37.7082 82.8595 37.431 82.8595 37.1467C82.5045 37.1467 82.2144 37.1467 81.8902 37.1467C81.8902 37.4799 81.8902 37.779 81.8842 38.1188C81.8745 38.1865 81.8709 38.2137 81.8672 38.2408C81.549 38.1864 81.2308 38.132 80.8879 38.0734C80.8879 37.7642 80.8879 37.4512 80.8879 37.0804C81.1789 37.0623 81.4677 37.0444 81.8328 37.0217C81.8372 36.7756 81.8414 36.5409 81.9016 36.2539C82.5902 36.2014 83.2228 36.2014 83.8555 36.2014C83.8607 36.8124 83.8659 37.4235 83.8093 38.0833C83.619 38.1304 83.4906 38.1288 83.3622 38.1272Z" fill="#805B55"/>
<path d="M74.9509 32.2117C74.8235 32.194 74.696 32.1762 74.5948 32.128C74.8793 32.1238 74.87 31.9466 74.8697 31.7708C74.8683 31.0185 74.8712 30.2661 74.8671 29.5137C74.8664 29.39 74.8387 29.2665 74.8209 29.1224C74.6981 29.1224 74.6064 29.1224 74.5146 29.1224C74.6403 29.0894 74.7659 29.0564 74.9327 29.0251C75.2872 29.0269 75.6006 29.0269 75.9451 29.0269C75.9451 30.06 75.9451 31.0454 75.9451 32.0887C76.2281 32.0887 76.5029 32.0887 76.8352 32.1209C76.8963 32.1794 76.9 32.2057 76.9037 32.2319C76.9037 32.2319 76.8969 32.2256 76.8487 32.2211C76.4881 32.2174 76.1756 32.2181 75.8138 32.2083C75.4932 32.2024 75.2221 32.2071 74.9509 32.2117Z" fill="#805B55"/>
<path d="M21.384 59.5386C21.4502 59.7227 21.5025 59.8635 21.591 60.1018C21.9563 59.3831 22.11 58.6699 22.3896 57.9765C22.5692 57.9765 22.748 57.9765 22.9729 57.9765C22.6009 58.9656 22.2386 59.9292 21.8763 60.8926C21.6698 60.8926 21.5035 60.8926 21.2954 60.8926C20.9639 59.9377 20.6316 58.9809 20.2834 57.9784C20.4869 57.9636 20.6477 57.952 20.8583 57.9368C21.0322 58.4663 21.2011 58.9808 21.384 59.5386Z" fill="#805B55"/>
<path d="M83.8353 32.0879C83.8781 33.0972 83.8781 34.0792 83.8781 35.0991C83.5663 35.0991 83.2564 35.0991 82.9041 35.0991C82.9041 34.0992 82.9041 33.1056 82.9041 32.0605C83.2003 32.0605 83.4964 32.0605 83.8353 32.0879Z" fill="#805B55"/>
<path d="M81.7266 57.4716C81.8668 57.3252 82.0029 57.2241 82.2072 57.0725C82.2274 57.4143 82.2414 57.6514 82.2565 57.9063C82.4405 57.9287 82.6026 57.9484 82.7498 57.9663C82.9169 58.4777 82.4744 58.3026 82.2366 58.4695C82.2366 59.0039 82.2352 59.5846 82.2374 60.1653C82.2382 60.3711 82.3364 60.4893 82.5514 60.4645C82.773 60.439 82.8997 60.5505 82.8447 60.7494C82.8173 60.8485 82.6397 60.9579 82.5206 60.9702C81.8428 61.0407 81.6849 60.775 81.7129 60.2734C81.7454 59.688 81.7205 59.0994 81.7205 58.4838C81.6445 58.4433 81.5643 58.407 81.4907 58.3601C81.2489 58.206 81.2405 58.0268 81.5081 57.9564C81.8047 57.8784 81.6883 57.6788 81.7266 57.4716Z" fill="#805B55"/>
<path d="M74.8645 33.1799C74.8817 33.1246 74.9059 33.1222 75.0128 33.1077C75.3441 33.0939 75.5928 33.0921 75.8533 33.103C75.8652 33.1155 75.8889 33.1406 75.8889 33.1406C75.8889 34.1368 75.8889 35.133 75.8889 36.166C75.5527 36.166 75.2468 36.166 74.8714 36.166C74.8714 35.1814 74.8714 34.2071 74.8645 33.1799Z" fill="#805B55"/>
<path d="M26.3492 57.2268C26.3657 57.4752 26.3657 57.6795 26.3657 57.9069C26.5758 57.9326 26.7357 57.9522 26.8911 57.9713C27.0424 58.4769 26.6303 58.3147 26.4074 58.4212C26.4074 59.0743 26.4074 59.7434 26.4074 60.4288C26.5851 60.4467 26.7308 60.4614 26.9074 60.4791C26.9297 60.5535 26.9915 60.6491 26.9714 60.7216C26.9459 60.8136 26.8699 60.932 26.7882 60.9612C26.2242 61.1626 25.8351 60.875 25.8307 60.2643C25.8264 59.6605 25.8298 59.0567 25.8298 58.5852C25.6536 58.3618 25.5524 58.2334 25.4512 58.1049C25.5571 58.0255 25.663 57.9461 25.8127 57.8339C25.8213 57.7249 25.8345 57.5579 25.8537 57.3159C25.9982 57.2757 26.1654 57.2292 26.3492 57.2268Z" fill="#805B55"/>
<path d="M79.9226 24.0081C79.9226 24.0081 79.8757 24.0147 79.8522 24.0175C79.5499 24.0203 79.2711 24.0203 78.9105 24.0203C78.9105 23.7075 78.9105 23.4152 78.893 23.0321C78.5729 22.9233 78.2703 22.9053 77.9677 22.8873C77.9558 22.6543 77.9439 22.4212 77.9915 22.1375C78.6757 22.0846 79.3005 22.0825 79.9253 22.0803C79.926 22.662 79.9266 23.2437 79.9284 23.8986C79.9295 23.9718 79.9226 24.0081 79.9226 24.0081Z" fill="#805B55"/>
<path d="M75.9067 38.1334C75.9067 38.5229 75.9067 38.8585 75.9067 39.2149C75.5465 39.2149 75.2526 39.2149 74.9158 39.2149C74.9158 38.5294 74.9158 37.8619 74.9158 37.1521C75.2167 37.1521 75.5245 37.1521 75.9067 37.1521C75.9067 37.4534 75.9067 37.7664 75.9067 38.1334Z" fill="#805B55"/>
<path d="M77.935 28.1901C77.9389 28.8568 77.9389 29.4729 77.9389 30.1024C77.562 30.1024 77.252 30.1024 76.9268 30.1024C76.9268 29.4057 76.9268 28.7385 76.9268 28.0286C77.2853 28.0455 77.6232 27.8733 77.935 28.1901Z" fill="#805B55"/>
<path d="M79.5833 29.5353C79.7945 29.5372 79.9301 29.5644 79.9287 29.7789C79.9249 30.3424 79.9274 30.906 79.9274 31.5034C79.5548 31.5034 79.2271 31.5034 78.8358 31.5034C78.8517 30.8664 78.7521 30.2355 78.9272 29.5349C79.1368 29.5349 79.336 29.5349 79.5833 29.5353Z" fill="#805B55"/>
<path d="M81.9594 39.1523C81.9342 39.4663 81.8992 39.7799 81.8867 40.0944C81.8741 40.4098 81.8839 40.726 81.8839 41.0675C81.5263 41.0675 81.2209 41.0675 80.8894 41.0675C80.8894 40.4198 80.8894 39.8037 80.8894 39.1383C81.18 39.1162 81.4719 39.0941 81.822 39.0771C81.8991 39.1143 81.9255 39.1376 81.9594 39.1523Z" fill="#805B55"/>
<path d="M76.8962 23.0493C76.889 22.9965 76.9385 22.9904 77.0141 22.9929C77.3539 22.9934 77.6181 22.9915 77.8823 22.9895C77.8823 23.6476 77.8823 24.3056 77.8823 25.0063C77.5968 25.0063 77.2896 25.0063 76.9034 25.0063C76.9034 24.375 76.9034 23.7385 76.8962 23.0493Z" fill="#805B55"/>
<path d="M77.9291 39.9632C77.9291 40.3548 77.9291 40.6917 77.9291 41.0635C77.5842 41.0635 77.2778 41.0635 76.9397 41.0635C76.9397 40.4323 76.9397 39.8163 76.9397 39.1497C77.2374 39.1497 77.5416 39.1497 77.9291 39.1497C77.9291 39.397 77.9291 39.6527 77.9291 39.9632Z" fill="#805B55"/>
<path d="M79.83 20.9493C79.1808 20.9493 78.5317 20.9493 77.8179 20.9493C77.8179 20.6518 77.8179 20.3958 77.8775 20.0886C78.5672 20.0368 79.1973 20.0362 79.8273 20.0356C79.8329 20.3096 79.8386 20.5835 79.8365 20.9065C79.8288 20.9557 79.83 20.9493 79.83 20.9493Z" fill="#805B55"/>
<path d="M24.4528 59.6472C24.4528 60.0798 24.4528 60.456 24.4528 60.8719C24.2759 60.8859 24.1355 60.8969 23.9509 60.9115C23.9509 59.9278 23.9509 58.9739 23.9509 57.9748C24.0864 57.9643 24.2269 57.9534 24.4528 57.9358C24.4528 58.508 24.4528 59.0495 24.4528 59.6472Z" fill="#805B55"/>
<path d="M79.9766 22.0699C79.3006 22.0824 78.6758 22.0845 78.001 22.088C78.0791 22.0488 78.2063 21.9766 78.3354 21.9731C78.8375 21.9594 79.3403 21.9676 79.8931 21.9676C79.8931 21.6273 79.8931 21.3323 79.8616 20.9932C79.8302 20.949 79.829 20.9554 79.8258 20.9567C80.0904 20.953 80.3581 20.9479 80.7171 20.9434C80.8633 20.9466 80.9183 20.9495 80.9733 20.9523C80.9572 21.2978 80.941 21.6434 80.9216 22.0595C80.6045 22.0595 80.3162 22.0595 79.9766 22.0699Z" fill="#805B55"/>
<path d="M15.3178 60.8948C15.2393 60.8393 15.1914 60.7913 15.1912 60.743C15.1867 59.8353 15.1879 58.9275 15.1879 57.9815C15.337 57.9689 15.4598 57.9586 15.5719 57.9492C15.6067 57.9965 15.6476 58.0263 15.6479 58.0565C15.6567 58.9097 15.6573 59.763 15.6696 60.6161C15.6728 60.8384 15.5875 60.931 15.3178 60.8948Z" fill="#805B55"/>
<path d="M32.1649 58.7489C32.1649 59.4834 32.1649 60.1622 32.1649 60.8711C31.9977 60.8711 31.8752 60.8711 31.7148 60.8711C31.7148 59.9215 31.7148 58.9663 31.7148 57.9795C31.8449 57.9795 31.9671 57.9795 32.1649 57.9795C32.1649 58.2138 32.1649 58.4534 32.1649 58.7489Z" fill="#805B55"/>
<path d="M76.9522 32.2166C76.9001 32.2058 76.8964 32.1796 76.8861 32.1142C76.8794 31.7399 76.8794 31.4048 76.8794 31.0435C77.241 31.0435 77.5516 31.0435 77.8965 31.0435C77.8965 31.4156 77.8965 31.7631 77.8965 32.1513C77.5889 32.1684 77.2948 32.1848 76.9522 32.2166Z" fill="#805B55"/>
<path d="M82.7826 40.5442C82.7714 40.2897 82.7856 40.1117 83.0635 40.1212C83.3207 40.13 83.5784 40.1231 83.8587 40.1231C83.8587 40.4647 83.8587 40.7407 83.8587 41.0589C83.5252 41.0589 83.1979 41.0589 82.8147 41.0589C82.8049 40.9173 82.7937 40.7559 82.7826 40.5442Z" fill="#805B55"/>
<path d="M75.7085 40.1855C76.0697 40.4681 75.8535 40.802 75.8862 41.1402C75.541 41.1402 75.2335 41.1402 74.8989 41.1402C74.8989 40.8282 74.8989 40.551 74.8989 40.1951C75.1517 40.1913 75.406 40.1875 75.7085 40.1855Z" fill="#805B55"/>
<path d="M78.9076 40.4409C78.9031 40.2373 78.9551 40.1307 79.1253 40.1291C79.3663 40.1269 79.6074 40.1285 79.8875 40.1285C79.8875 40.4558 79.8875 40.7436 79.8875 41.0662C79.5728 41.0662 79.2663 41.0662 78.9072 41.0662C78.9072 40.8599 78.9072 40.676 78.9076 40.4409Z" fill="#805B55"/>
<path d="M82.0119 39.1567C81.9256 39.1376 81.8992 39.1143 81.8693 39.0578C81.8557 38.802 81.853 38.5706 81.8589 38.2901C81.871 38.2138 81.8747 38.1866 81.9319 38.1255C82.2755 38.0872 82.5655 38.0828 82.8556 38.0784C82.8596 38.1054 82.8636 38.1325 82.8731 38.2003C82.8786 38.5212 82.8786 38.8015 82.8786 39.1612C82.6075 39.1612 82.3359 39.1612 82.0119 39.1567Z" fill="#805B55"/>
<path d="M81.0228 20.9516C80.918 20.9495 80.863 20.9467 80.7667 20.9432C80.7352 20.6742 80.7451 20.406 80.8122 20.0873C81.1877 20.0376 81.506 20.0383 81.8242 20.039C81.8242 20.3145 81.8242 20.59 81.8242 20.9369C81.5715 20.9416 81.3221 20.9462 81.0228 20.9516Z" fill="#805B55"/>
<path d="M82.8777 22.0845C82.8844 22.3114 82.891 22.5384 82.8903 22.8454C82.8841 22.9468 82.8851 22.968 82.8862 22.9892C82.8862 22.9892 82.8781 22.9971 82.8246 22.9997C82.4724 23.0033 82.1738 23.0045 81.8751 23.0056C81.8751 23.0056 81.8675 22.9971 81.865 22.9613C81.8602 22.9044 81.8579 22.8832 81.8556 22.8621C81.8538 22.6349 81.8521 22.4078 81.9095 22.1321C82.2717 22.0838 82.5747 22.0842 82.8777 22.0845Z" fill="#805B55"/>
<path d="M75.8632 32.2191C76.1756 32.2183 76.4881 32.2175 76.8529 32.2194C76.9061 32.4492 76.9068 32.6763 76.9027 32.9516C76.8957 33.0246 76.8935 33.0493 76.888 33.1113C76.5857 33.1447 76.2868 33.1409 75.9384 33.1388C75.8889 33.1406 75.8652 33.1155 75.8578 33.0564C75.8546 32.7379 75.8589 32.4785 75.8632 32.2191Z" fill="#805B55"/>
<path d="M31.711 57.2772C31.5437 57.0601 31.627 56.9148 31.7971 56.8469C31.8963 56.8073 32.0708 56.8231 32.1428 56.8896C32.2122 56.9537 32.2448 57.1387 32.2034 57.2285C32.1042 57.4437 31.9162 57.4111 31.711 57.2772Z" fill="#805B55"/>
<path d="M15.6069 57.3486C15.4953 57.3683 15.3926 57.3977 15.3557 57.3606C15.2626 57.2669 15.1274 57.1346 15.1394 57.0334C15.1608 56.8532 15.3456 56.7504 15.5151 56.8226C15.6176 56.8664 15.6852 57.0219 15.7375 57.141C15.7554 57.1817 15.679 57.2645 15.6069 57.3486Z" fill="#805B55"/>
<path d="M83.8367 36.1594C83.2229 36.2014 82.5902 36.2014 81.9038 36.203C81.5561 36.1842 81.2623 36.1637 80.9453 36.1118C81.21 36.0805 81.4978 36.0808 81.8358 36.0793C82.5301 36.0909 83.174 36.1042 83.8367 36.1594Z" fill="#805B55"/>
<path d="M24.2957 56.8163C24.5332 57.1552 24.5133 57.3323 24.2719 57.3714C24.0771 57.4029 23.9264 57.3173 23.9045 57.1244C23.8777 56.8876 24.0394 56.803 24.2957 56.8163Z" fill="#805B55"/>
<path d="M79.8066 19.9908C79.1973 20.0362 78.5673 20.0367 77.8872 20.0386C77.9093 19.9997 77.9814 19.925 78.0536 19.9248C78.631 19.9239 79.2085 19.9371 79.8066 19.9908Z" fill="#805B55"/>
<path d="M77.9349 22.9829C77.6181 22.9915 77.3539 22.9934 77.0387 22.9893C76.9878 22.9831 76.9933 22.9466 76.9949 22.9283C77.2846 22.9121 77.5726 22.9142 77.9141 22.9019C78.2701 22.9054 78.5727 22.9233 78.8973 22.9818C78.6087 23.0069 78.2981 22.9916 77.9349 22.9829Z" fill="#805B55"/>
<path d="M81.8091 19.9968C81.5061 20.0383 81.1878 20.0376 80.822 20.038C81.0971 19.8005 81.4508 19.9419 81.8091 19.9968Z" fill="#805B55"/>
<path d="M82.9346 22.9933C82.8854 22.9681 82.8843 22.9468 82.8867 22.8939C83.1838 22.8902 83.4775 22.9181 83.7961 22.9755C83.5416 23.0024 83.2622 22.9998 82.9346 22.9933Z" fill="#805B55"/>
<path d="M81.8108 22.8801C81.8582 22.8834 81.8604 22.9045 81.8612 22.9575C81.5779 22.9941 81.2961 22.9988 80.9697 23.0044C81.2053 22.9695 81.4855 22.9337 81.8108 22.8801Z" fill="#805B55"/>
<path d="M82.86 22.0411C82.5749 22.0843 82.2719 22.084 81.9185 22.0841C82.1754 21.8601 82.5142 21.9907 82.86 22.0411Z" fill="#805B55"/>
<path d="M76.9503 22.0461C76.6599 22.0695 76.3547 22.0504 76.0203 21.9971C76.3058 21.9765 76.6206 21.9901 76.9503 22.0461Z" fill="#805B55"/>
<path d="M79.7825 24.9722C79.5699 24.9967 79.3103 25.0236 79.0051 25.0492C79.2182 25.0235 79.4769 24.999 79.7825 24.9722Z" fill="#805B55"/>
<path d="M79.9723 24.0143C79.9224 24.0081 79.9293 23.9719 79.9316 23.9536C80.2046 23.9402 80.4753 23.945 80.7962 23.9475C80.5716 23.9703 80.2968 23.9954 79.9723 24.0143Z" fill="#805B55"/>
<path d="M83.3904 38.1453C83.4907 38.1288 83.6191 38.1304 83.7856 38.1309C83.6886 38.1411 83.5536 38.1522 83.3904 38.1453Z" fill="#805B55"/>
<path d="M74.9234 28.0831C74.8087 28.1011 74.6869 28.0798 74.5435 28.0277C74.6533 28.0125 74.7847 28.0281 74.9234 28.0831Z" fill="#805B55"/>
<path d="M72.9536 40.0511C72.9676 40.3074 72.9088 40.4194 72.6745 40.4164C71.8897 40.4061 71.1047 40.4124 70.2827 40.4124C70.2827 39.5008 70.2827 38.6255 70.2827 37.7168C71.1653 37.7168 72.0337 37.7168 72.9538 37.7168C72.9538 38.4946 72.9538 39.2453 72.9536 40.0511Z" fill="#805B55"/>
<path d="M88.5451 22.0916C88.5451 22.77 88.5451 23.3925 88.5451 24.0524C87.6707 24.0524 86.8355 24.0524 85.959 24.0524C85.959 23.1713 85.959 22.2976 85.959 21.3972C86.8167 21.3972 87.6504 21.3972 88.5451 21.3972C88.5451 21.6297 88.5451 21.8327 88.5451 22.0916Z" fill="#805B55"/>
</g>
<defs>
<clipPath id="clip0_255_212">
<rect width="100" height="65" fill="white"/>
</clipPath>
</defs>
</svg>
