<svg width="72" height="73" viewBox="0 0 72 73" fill="none" xmlns="http://www.w3.org/2000/svg">
<path d="M18 60.5C16.4087 60.5 14.8826 59.8679 13.7574 58.7426C12.6321 57.6174 12 56.0913 12 54.5V24.5C12 22.9087 12.6321 21.3826 13.7574 20.2574C14.8826 19.1321 16.4087 18.5 18 18.5H54C55.5913 18.5 57.1174 19.1321 58.2426 20.2574C59.3679 21.3826 60 22.9087 60 24.5V54.5C60 56.0913 59.3679 57.6174 58.2426 58.7426C57.1174 59.8679 55.5913 60.5 54 60.5M18 60.5C18 63.8137 20.6863 66.5 24 66.5C27.3137 66.5 30 63.8137 30 60.5M18 60.5C18 57.1863 20.6863 54.5 24 54.5M54 60.5C54 63.8137 51.3137 66.5 48 66.5C44.6863 66.5 42 63.8137 42 60.5M54 60.5C54 57.1863 51.3137 54.5 48 54.5M24 54.5V12.5C24 10.9087 24.6321 9.38258 25.7574 8.25736C26.8826 7.13214 28.4087 6.5 30 6.5H42C43.5913 6.5 45.1174 7.13214 46.2426 8.25736C47.3679 9.38258 48 10.9087 48 12.5V54.5M24 54.5C27.3137 54.5 30 57.1863 30 60.5M48 54.5C44.6863 54.5 42 57.1863 42 60.5M30 60.5H42" stroke="#805B55" stroke-width="2" stroke-linecap="round" stroke-linejoin="round"/>
</svg>
