<svg width="25" height="24" viewBox="0 0 25 24" fill="none" xmlns="http://www.w3.org/2000/svg">
<path d="M22.5 5V9L12.5 13L2.5 9V5C2.5 4.73478 2.60536 4.48043 2.79289 4.29289C2.98043 4.10536 3.23478 4 3.5 4H21.5C21.7652 4 22.0196 4.10536 22.2071 4.29289C22.3946 4.48043 22.5 4.73478 22.5 5ZM2.5 11.154V19C2.5 19.2652 2.60536 19.5196 2.79289 19.7071C2.98043 19.8946 3.23478 20 3.5 20H21.5C21.7652 20 22.0196 19.8946 22.2071 19.7071C22.3946 19.5196 22.5 19.2652 22.5 19V11.154L12.5 15.154L2.5 11.154Z" fill="#FBF6F0"/>
</svg>
