<svg width="32" height="33" viewBox="0 0 32 33" fill="none" xmlns="http://www.w3.org/2000/svg">
<g clip-path="url(#clip0_286_13)">
<path d="M26.2931 0.5H1.58187C0.70823 0.5 0 1.20823 0 2.08187V18.0189C0 18.8926 0.70823 19.6008 1.58187 19.6008H26.2931C27.1668 19.6008 27.875 18.8926 27.875 18.0189V2.08187C27.875 1.20823 27.1668 0.5 26.2931 0.5Z" fill="#805B55"/>
<path d="M27.2337 19.2633C27.4332 19.1107 27.5949 18.9142 27.7062 18.6889C27.8174 18.4637 27.8752 18.2158 27.875 17.9646V2.13619C27.875 1.70224 27.7026 1.28607 27.3958 0.979228C27.0889 0.672384 26.6727 0.5 26.2388 0.5H10.4067L27.2 19.2509L27.2337 19.2633Z" fill="#805B55"/>
<path d="M17.4683 0.5H1.63619C1.20224 0.5 0.786073 0.672384 0.479229 0.979228C0.172384 1.28607 4.13534e-07 1.70224 4.13534e-07 2.13619V17.9646C-0.000172982 18.2083 0.0541844 18.4489 0.159087 18.6688C0.26399 18.8887 0.416778 19.0823 0.60625 19.2355L0.675 19.2509L17.4683 0.5Z" fill="#805B55"/>
<path d="M26.2388 0.5H1.63619C1.20224 0.5 0.786073 0.672384 0.479228 0.979228C0.172384 1.28607 0 1.70224 0 2.13619L0 2.76513L11.8073 10.9012C12.4338 11.3329 13.1766 11.5641 13.9375 11.5641C14.6984 11.5641 15.4412 11.3329 16.0678 10.9012L27.875 2.76513V2.13619C27.875 1.70224 27.7026 1.28607 27.3958 0.979228C27.0889 0.672384 26.6728 0.5 26.2388 0.5Z" fill="#987670"/>
<path d="M7.25804 32.4999C7.15548 32.5 7.0554 32.4685 6.97135 32.4097C6.8873 32.351 6.82334 32.2678 6.78816 32.1715C6.75298 32.0752 6.74826 31.9703 6.77466 31.8712C6.80106 31.7722 6.85728 31.6836 6.93572 31.6175L13.8475 25.8728C13.8975 25.829 13.9557 25.7956 14.0188 25.7746C14.0818 25.7536 14.1484 25.7454 14.2147 25.7505C14.2809 25.7555 14.3455 25.7737 14.4047 25.804C14.4638 25.8343 14.5163 25.8761 14.5592 25.9269C14.602 25.9777 14.6342 26.0366 14.654 26.1C14.6738 26.1635 14.6808 26.2302 14.6745 26.2964C14.6682 26.3625 14.6488 26.4268 14.6174 26.4853C14.586 26.5439 14.5432 26.5956 14.4916 26.6374L7.57991 32.3824C7.4899 32.4584 7.37585 32.5001 7.25804 32.4999Z" fill="#805B55"/>
<path d="M13.1204 31.4117C13.0186 31.4117 12.9193 31.3807 12.8357 31.3228C12.752 31.265 12.688 31.183 12.6522 31.0877C12.6163 30.9925 12.6104 30.8887 12.6351 30.79C12.6599 30.6913 12.7142 30.6026 12.7907 30.5355L14.4921 28.9812C14.5414 28.9376 14.5989 28.9042 14.6611 28.8829C14.7234 28.8616 14.7893 28.8528 14.855 28.857C14.9207 28.8612 14.9849 28.8783 15.0439 28.9074C15.103 28.9365 15.1557 28.977 15.1991 29.0265C15.2425 29.076 15.2756 29.1336 15.2967 29.196C15.3178 29.2583 15.3263 29.3242 15.3218 29.3899C15.3174 29.4556 15.3 29.5197 15.2707 29.5787C15.2413 29.6376 15.2007 29.6902 15.151 29.7333L13.4499 31.2877C13.3588 31.3678 13.2416 31.4119 13.1204 31.4117Z" fill="#805B55"/>
<path d="M14.9751 21.5218L18.1295 29.0777L23.8925 20.4326L31.9943 12.7129L14.9751 21.5218Z" fill="#805B55"/>
<path d="M31.9943 12.6572L15.3674 22.3558L10.4751 21.0866L31.9943 12.6572Z" fill="#987670"/>
<path d="M26.1387 19.071L18.1294 29.0776L19.0746 23.3463L26.1387 19.071Z" fill="#805B55"/>
<path d="M31.9943 12.7128C31.9989 12.6986 32.0049 12.6878 31.9943 12.6983L19.0747 23.3463L27.0781 25.5249L31.9943 12.7128Z" fill="#987670"/>
</g>
<defs>
<clipPath id="clip0_286_13">
<rect width="32" height="32" fill="white" transform="translate(0 0.5)"/>
</clipPath>
</defs>
</svg>
