<svg width="72" height="73" viewBox="0 0 72 73" fill="none" xmlns="http://www.w3.org/2000/svg">
<path d="M45 54.5H30M54 42.5H30M12 66.5H60C61.5913 66.5 63.1174 65.8679 64.2426 64.7426C65.3679 63.6174 66 62.0913 66 60.5V12.5C66 10.9087 65.3679 9.38258 64.2426 8.25736C63.1174 7.13214 61.5913 6.5 60 6.5H24C22.4087 6.5 20.8826 7.13214 19.7574 8.25736C18.6321 9.38258 18 10.9087 18 12.5V60.5C18 62.0913 17.3679 63.6174 16.2426 64.7426C15.1174 65.8679 13.5913 66.5 12 66.5ZM12 66.5C10.4087 66.5 8.88258 65.8679 7.75736 64.7426C6.63214 63.6174 6 62.0913 6 60.5V33.5C6 31.9087 6.63214 30.3826 7.75736 29.2574C8.88258 28.1321 10.4087 27.5 12 27.5H18M33 18.5H51C52.6569 18.5 54 19.8431 54 21.5V27.5C54 29.1569 52.6569 30.5 51 30.5H33C31.3431 30.5 30 29.1569 30 27.5V21.5C30 19.8431 31.3431 18.5 33 18.5Z" stroke="#805B55" stroke-width="2" stroke-linecap="round" stroke-linejoin="round"/>
</svg>
