<svg width="72" height="73" viewBox="0 0 72 73" fill="none" xmlns="http://www.w3.org/2000/svg">
<path d="M40.2 6.50045H18C16.4087 6.50045 14.8826 7.13259 13.7574 8.25781C12.6321 9.38302 12 10.9091 12 12.5004V60.5004C12 62.0917 12.6321 63.6179 13.7574 64.7431C14.8826 65.8683 16.4087 66.5004 18 66.5004H54C55.5913 66.5004 57.1174 65.8683 58.2426 64.7431C59.3679 63.6179 60 62.0917 60 60.5004V38.3004M6 18.5004H18M6 30.5004H18M6 42.5004H18M6 54.5004H18M64.134 17.3784C65.3291 16.1834 66.0004 14.5625 66.0004 12.8724C66.0004 11.1824 65.3291 9.56151 64.134 8.36645C62.9389 7.17138 61.3181 6.5 59.628 6.5C57.9379 6.5 56.3171 7.17138 55.122 8.36645L40.092 23.4024C39.3787 24.1153 38.8567 24.9965 38.574 25.9644L36.063 34.5744C35.9877 34.8326 35.9832 35.1062 36.0499 35.3667C36.1167 35.6272 36.2522 35.865 36.4423 36.0551C36.6325 36.2452 36.8702 36.3808 37.1307 36.4475C37.3912 36.5143 37.6649 36.5097 37.923 36.4344L46.533 33.9234C47.501 33.6408 48.3821 33.1187 49.095 32.4054L64.134 17.3784Z" stroke="#805B55" stroke-width="2" stroke-linecap="round" stroke-linejoin="round"/>
</svg>
