<svg width="40" height="40" viewBox="0 0 40 40" fill="none" xmlns="http://www.w3.org/2000/svg">
<g clip-path="url(#clip0_42_871)">
<path d="M20.0222 1.53823C20.0884 1.53669 20.1669 1.53516 20.2453 1.53516C22.313 1.53516 24.2376 2.15054 25.8453 3.20746L25.8069 3.18439C28.5884 4.88285 30.4176 7.90131 30.4176 11.3475C30.4176 11.6167 30.4069 11.8844 30.3838 12.149L30.3853 12.1152C30.3853 12.868 30.313 14.3982 30.1684 16.7059C30.3638 16.809 30.5946 16.8721 30.8407 16.8752C31.2946 16.8382 31.713 16.7228 32.0946 16.5413L32.073 16.5505C32.433 16.3782 32.8499 16.2613 33.2915 16.2259L33.3038 16.2244C33.8084 16.2305 34.2746 16.3921 34.6576 16.6628L34.6499 16.6582C35.0376 16.8828 35.2946 17.2936 35.2992 17.7659C35.2869 18.3167 34.9899 18.7952 34.5499 19.0598L34.5422 19.0644C34.0684 19.3998 33.5146 19.6598 32.9176 19.8136L32.8823 19.8213C32.253 19.9798 31.7007 20.2198 31.1976 20.5321L31.2222 20.5182C30.7899 20.7305 30.4915 21.1582 30.4653 21.6567V21.6598C30.4992 22.0413 30.6023 22.3921 30.7607 22.7105L30.753 22.6936C31.3946 24.0859 32.2207 25.2782 33.2176 26.3029L33.2146 26.2998C34.173 27.3167 35.3284 28.1382 36.6207 28.7029L36.6869 28.729C37.2299 28.949 37.8746 29.1413 38.5407 29.2705L38.6084 29.2813C38.9915 29.3321 39.2853 29.6567 39.2853 30.0505C39.2853 30.0767 39.2838 30.1013 39.2822 30.1259V30.1229C39.2822 31.2449 37.5274 32.0705 34.0176 32.5998C33.8776 32.8721 33.7822 33.1905 33.753 33.5275V33.5367C33.7038 33.9521 33.5838 34.3305 33.4084 34.6736L33.4176 34.6552C33.2761 34.9228 32.9992 35.1013 32.6807 35.1013C32.6607 35.1013 32.6407 35.1013 32.6207 35.0998H32.6238C32.0822 35.0798 31.5684 35.0244 31.0669 34.9336L31.133 34.9428C30.6822 34.8598 30.1515 34.8044 29.6115 34.7875H29.5946C29.5622 34.7875 29.5238 34.7875 29.4853 34.7875C28.9976 34.7875 28.5192 34.8321 28.0561 34.9182L28.1038 34.9105C27.5346 35.0059 27.0269 35.1952 26.5684 35.4629L26.5899 35.4521C26.0546 35.7552 25.5992 36.0567 25.1653 36.3875L25.1961 36.3659C24.7633 36.6941 24.2987 37.0187 23.8022 37.3398C23.2761 37.6705 22.6699 37.9459 22.0269 38.1321L21.9761 38.1444C21.2884 38.3505 20.4992 38.469 19.6807 38.469C19.6499 38.469 19.6207 38.469 19.5915 38.469H19.5961C19.5761 38.469 19.5515 38.469 19.5284 38.469C18.7253 38.469 17.9515 38.3505 17.2207 38.129L17.2776 38.1444C16.5915 37.9459 15.993 37.6705 15.4469 37.3228L15.4746 37.3398C14.9822 37.0187 14.5217 36.6941 14.093 36.3659C13.6899 36.0582 13.2346 35.7552 12.7592 35.4844L12.6992 35.4521C12.2669 35.1967 11.7622 35.009 11.2253 34.9152L11.1992 34.9121C10.773 34.8336 10.2838 34.789 9.78379 34.789C9.7484 34.789 9.71455 34.789 9.67917 34.789H9.68379C9.11609 34.8059 8.57456 34.8705 8.0484 34.9798L8.10994 34.969C7.70071 35.0582 7.21917 35.1229 6.72532 35.1475L6.70225 35.149C6.67917 35.1505 6.65148 35.1521 6.62379 35.1521C6.29763 35.1521 6.01302 34.9736 5.86379 34.709L5.86225 34.7044C5.69302 34.3721 5.57302 33.9859 5.5284 33.5782L5.52686 33.5629C5.49917 33.2075 5.40379 32.8813 5.25609 32.5859L5.26225 32.6013C1.75353 32.0711 -0.000829327 31.2454 -0.000829327 30.1244C-0.00236779 30.1028 -0.00390625 30.0767 -0.00390625 30.0521C-0.00390625 29.6582 0.288401 29.3336 0.668401 29.2829H0.673017C1.40686 29.1413 2.05148 28.9505 2.6684 28.7044L2.59609 28.7305C3.95763 28.1444 5.11302 27.3229 6.06379 26.3075L6.0684 26.3013C7.06686 25.2813 7.89302 24.089 8.49763 22.7736L8.52994 22.6952C8.68225 22.3936 8.78379 22.0428 8.81763 21.6721L8.81917 21.6613C8.79302 21.1598 8.49455 20.7321 8.06994 20.5228L8.06225 20.5198C7.58225 20.2198 7.02532 19.9767 6.43456 19.8198L6.39148 19.8105C5.75609 19.6428 5.19917 19.3828 4.70379 19.0413L4.72225 19.0536C4.27917 18.7967 3.98071 18.3305 3.96532 17.7936V17.7921C3.97302 17.3305 4.21917 16.929 4.58532 16.7013L4.59148 16.6982C4.95609 16.4244 5.41456 16.2582 5.91302 16.2536C6.33917 16.2982 6.73148 16.409 7.08994 16.5752L7.06686 16.5659C7.44071 16.7367 7.87302 16.849 8.32994 16.8782H8.34071H8.37148C8.64071 16.8782 8.89456 16.8152 9.11917 16.7044L9.10994 16.709C8.96532 14.4341 8.89302 12.9116 8.89302 12.1413C8.88225 11.9644 8.87609 11.7567 8.87609 11.549C8.87609 10.209 9.11917 8.92439 9.56532 7.73977L9.54071 7.81362C10.4069 5.80285 11.8361 4.17208 13.6299 3.07977L13.6746 3.05362C15.4453 2.09823 17.5499 1.53823 19.7869 1.53823C19.8699 1.53823 19.953 1.53977 20.0361 1.54131H20.0238L20.0222 1.53823Z" fill="#805B55"/>
</g>
<defs>
<clipPath id="clip0_42_871">
<rect width="40" height="40" fill="white"/>
</clipPath>
</defs>
</svg>
