<svg width="16" height="16" viewBox="0 0 16 16" fill="none" xmlns="http://www.w3.org/2000/svg">
<g clip-path="url(#clip0_286_191)">
<path d="M8.009 0.615489C8.03546 0.614873 8.06684 0.614258 8.09823 0.614258C8.9253 0.614258 9.69515 0.860412 10.3382 1.28318L10.3228 1.27395C11.4355 1.95333 12.1671 3.16072 12.1671 4.53918C12.1671 4.64687 12.1628 4.75395 12.1536 4.8598L12.1542 4.84626C12.1542 5.14739 12.1253 5.75949 12.0675 6.68257C12.1456 6.7238 12.2379 6.74903 12.3364 6.75026C12.5179 6.73549 12.6853 6.68933 12.8379 6.61672L12.8293 6.62041C12.9733 6.55149 13.1401 6.50472 13.3167 6.49056L13.3216 6.48995C13.5235 6.49241 13.7099 6.55703 13.8632 6.66533L13.8601 6.66349C14.0152 6.75333 14.1179 6.91764 14.1198 7.10656C14.1148 7.32687 13.9961 7.51826 13.8201 7.6241L13.817 7.62595C13.6275 7.7601 13.4059 7.8641 13.1671 7.92564L13.153 7.92872C12.9013 7.9921 12.6804 8.0881 12.4791 8.21303L12.489 8.20749C12.3161 8.29241 12.1967 8.46349 12.1862 8.66287V8.6641C12.1998 8.81672 12.241 8.95703 12.3044 9.08441L12.3013 9.07764C12.5579 9.63457 12.8884 10.1115 13.2871 10.5213L13.2859 10.5201C13.6693 10.9269 14.1315 11.2555 14.6484 11.4813L14.6748 11.4918C14.8921 11.5798 15.1499 11.6567 15.4164 11.7084L15.4435 11.7127C15.5967 11.733 15.7142 11.8629 15.7142 12.0204C15.7142 12.0309 15.7136 12.0407 15.713 12.0506V12.0493C15.713 12.4982 15.011 12.8284 13.6072 13.0401C13.5512 13.149 13.513 13.2764 13.5013 13.4112V13.4149C13.4816 13.581 13.4336 13.7324 13.3635 13.8696L13.3672 13.8623C13.3105 13.9693 13.1998 14.0407 13.0724 14.0407C13.0644 14.0407 13.0564 14.0407 13.0484 14.0401H13.0496C12.833 14.0321 12.6275 14.01 12.4268 13.9736L12.4533 13.9773C12.273 13.9441 12.0607 13.9219 11.8447 13.9152H11.8379C11.825 13.9152 11.8096 13.9152 11.7942 13.9152C11.5992 13.9152 11.4078 13.933 11.2225 13.9675L11.2416 13.9644C11.0139 14.0026 10.8108 14.0783 10.6275 14.1853L10.6361 14.181C10.4219 14.3023 10.2398 14.4229 10.0662 14.5552L10.0785 14.5466C9.90541 14.6778 9.71956 14.8077 9.521 14.9361C9.31053 15.0684 9.06807 15.1786 8.81084 15.253L8.79053 15.2579C8.51546 15.3404 8.19977 15.3878 7.87238 15.3878C7.86007 15.3878 7.84838 15.3878 7.83669 15.3878H7.83853C7.83053 15.3878 7.82069 15.3878 7.81146 15.3878C7.49023 15.3878 7.18069 15.3404 6.88838 15.2518L6.91115 15.2579C6.63669 15.1786 6.3973 15.0684 6.17884 14.9293L6.18992 14.9361C5.993 14.8077 5.80879 14.6778 5.6373 14.5466C5.47607 14.4235 5.29392 14.3023 5.10377 14.1939L5.07977 14.181C4.90684 14.0789 4.705 14.0038 4.49023 13.9663L4.47977 13.965C4.3093 13.9336 4.11361 13.9158 3.91361 13.9158C3.89946 13.9158 3.88592 13.9158 3.87177 13.9158H3.87361C3.64653 13.9226 3.42992 13.9484 3.21946 13.9921L3.24407 13.9878C3.08038 14.0235 2.88777 14.0493 2.69023 14.0592L2.681 14.0598C2.67177 14.0604 2.66069 14.061 2.64961 14.061C2.51915 14.061 2.4053 13.9896 2.34561 13.8838L2.345 13.882C2.2773 13.749 2.2293 13.5946 2.21146 13.4315L2.21084 13.4253C2.19977 13.2832 2.16161 13.1527 2.10254 13.0346L2.105 13.0407C0.70151 12.8286 -0.000234075 12.4984 -0.000234075 12.0499C-0.000849459 12.0413 -0.00146484 12.0309 -0.00146484 12.021C-0.00146484 11.8635 0.115458 11.7336 0.267458 11.7133H0.269304C0.562843 11.6567 0.820689 11.5804 1.06746 11.482L1.03853 11.4924C1.58315 11.2579 2.0453 10.9293 2.42561 10.5232L2.42746 10.5207C2.82684 10.1127 3.1573 9.6358 3.39915 9.10964L3.41207 9.07826C3.473 8.95764 3.51361 8.81733 3.52715 8.66903L3.52777 8.66472C3.5173 8.4641 3.39792 8.29303 3.22807 8.20933L3.225 8.2081C3.033 8.0881 2.81023 7.99087 2.57392 7.9281L2.55669 7.92441C2.30254 7.85733 2.07977 7.75333 1.88161 7.61672L1.889 7.62164C1.71177 7.51887 1.59238 7.33241 1.58623 7.11764V7.11703C1.5893 6.93241 1.68777 6.7718 1.83423 6.68072L1.83669 6.67949C1.98254 6.56995 2.16592 6.50349 2.3653 6.50164C2.53577 6.51949 2.69269 6.5638 2.83607 6.63026L2.82684 6.62656C2.97638 6.69487 3.1493 6.7398 3.33207 6.75149H3.33638H3.34869C3.45638 6.75149 3.55792 6.72626 3.64777 6.68195L3.64407 6.6838C3.58623 5.77385 3.5573 5.16482 3.5573 4.85672C3.553 4.78595 3.55053 4.70287 3.55053 4.6198C3.55053 4.0838 3.64777 3.56995 3.82623 3.0961L3.81638 3.12564C4.16284 2.32133 4.73453 1.66903 5.45207 1.2321L5.46992 1.22164C6.17823 0.839489 7.02007 0.615489 7.91484 0.615489C7.94807 0.615489 7.9813 0.616104 8.01453 0.616719H8.00961L8.009 0.615489Z" fill="#805B55"/>
</g>
<defs>
<clipPath id="clip0_286_191">
<rect width="16" height="16" fill="white"/>
</clipPath>
</defs>
</svg>
