<svg width="34" height="38" viewBox="0 0 34 38" fill="none" xmlns="http://www.w3.org/2000/svg">
<path d="M17.8199 0.286133C19.8661 0.254883 21.8974 0.271133 23.9274 0.254883C23.9949 2.79363 25.0249 5.07863 26.6636 6.77113L26.6611 6.76863C28.4249 8.35738 30.7199 9.38738 33.2499 9.56238L33.2849 9.56488V15.8599C30.8949 15.7999 28.6474 15.2486 26.6211 14.3011L26.7236 14.3436C25.7436 13.8724 24.9149 13.3886 24.1274 12.8486L24.1924 12.8911C24.1774 17.4524 24.2074 22.0136 24.1611 26.5586C24.0324 28.8749 23.2624 30.9874 22.0274 32.7511L22.0524 32.7124C19.9874 35.6699 16.6424 37.6111 12.8386 37.7261H12.8211C12.6674 37.7336 12.4861 37.7374 12.3036 37.7374C10.1411 37.7374 8.11989 37.1349 6.39739 36.0886L6.44739 36.1174C3.31239 34.2311 1.14989 31.0036 0.749886 27.2499L0.744886 27.1986C0.713636 26.4174 0.698636 25.6361 0.729886 24.8711C1.34239 18.8974 6.34739 14.2761 12.4311 14.2761C13.1149 14.2761 13.7849 14.3349 14.4361 14.4461L14.3661 14.4361C14.3974 16.7474 14.3036 19.0599 14.3036 21.3711C13.7749 21.1799 13.1649 21.0686 12.5286 21.0686C10.1936 21.0686 8.20739 22.5611 7.47239 24.6449L7.46114 24.6824C7.29489 25.2161 7.19864 25.8299 7.19864 26.4649C7.19864 26.7224 7.21489 26.9774 7.24489 27.2274L7.24239 27.1974C7.65739 29.7549 9.84989 31.6849 12.4936 31.6849C12.5699 31.6849 12.6449 31.6836 12.7199 31.6799H12.7086C14.5374 31.6249 16.1249 30.6411 17.0224 29.1874L17.0349 29.1649C17.3686 28.6999 17.5974 28.1374 17.6736 27.5261L17.6749 27.5086C17.8311 24.7124 17.7686 21.9324 17.7836 19.1361C17.7986 12.8411 17.7686 6.56113 17.8149 0.282383L17.8199 0.286133Z" fill="#805B55"/>
</svg>
