<svg width="16" height="15" viewBox="0 0 16 15" fill="none" xmlns="http://www.w3.org/2000/svg">
<path d="M8.3073 0.482422C9.07465 0.470703 9.83637 0.476797 10.5976 0.470703C10.6229 1.42273 11.0092 2.27961 11.6237 2.9143L11.6228 2.91336C12.2842 3.50914 13.1448 3.89539 14.0936 3.96102L14.1067 3.96195V6.32258C13.2104 6.30008 12.3676 6.09336 11.6078 5.73805L11.6462 5.75398C11.2787 5.57727 10.9679 5.39586 10.6726 5.19336L10.697 5.2093C10.6914 6.91977 10.7026 8.63023 10.6853 10.3346C10.637 11.2032 10.3482 11.9954 9.88512 12.6568L9.89449 12.6423C9.12012 13.7513 7.86574 14.4793 6.43934 14.5224H6.43277C6.37512 14.5252 6.30715 14.5266 6.23871 14.5266C5.42777 14.5266 4.6698 14.3007 4.02387 13.9084L4.04262 13.9191C2.86699 13.2118 2.05605 12.0015 1.90605 10.5938L1.90418 10.5746C1.89246 10.2816 1.88684 9.98867 1.89855 9.7018C2.12824 7.46164 4.00512 5.72867 6.28652 5.72867C6.54293 5.72867 6.79418 5.7507 7.0384 5.79242L7.01215 5.78867C7.02387 6.65539 6.98871 7.52258 6.98871 8.3893C6.79043 8.31758 6.56168 8.27586 6.32309 8.27586C5.44746 8.27586 4.70262 8.83555 4.42699 9.61695L4.42277 9.63102C4.36043 9.83117 4.32434 10.0613 4.32434 10.2995C4.32434 10.396 4.33043 10.4916 4.34168 10.5854L4.34074 10.5741C4.49637 11.5332 5.31855 12.257 6.30996 12.257C6.33855 12.257 6.36668 12.2565 6.3948 12.2551H6.39059C7.07637 12.2345 7.67168 11.8655 8.00824 11.3204L8.01293 11.312C8.13809 11.1376 8.22387 10.9266 8.25246 10.6974L8.25293 10.6909C8.31152 9.64227 8.28809 8.59977 8.29371 7.55117C8.29934 5.19055 8.28809 2.83555 8.30543 0.481016L8.3073 0.482422Z" fill="#805B55"/>
</svg>
