<svg width="72" height="73" viewBox="0 0 72 73" fill="none" xmlns="http://www.w3.org/2000/svg">
<path d="M34.5 45.5H21C17.8174 45.5 14.7652 46.7643 12.5147 49.0147C10.2643 51.2652 9 54.3174 9 57.5V63.5M64.134 50.378C65.3291 49.1829 66.0004 47.5621 66.0004 45.872C66.0004 44.1819 65.3291 42.5611 64.134 41.366C62.9389 40.1709 61.3181 39.4996 59.628 39.4996C57.9379 39.4996 56.3171 40.1709 55.122 41.366L43.092 53.402C42.3787 54.1149 41.8567 54.996 41.574 55.964L39.063 64.574C38.9877 64.8321 38.9832 65.1058 39.0499 65.3663C39.1167 65.6268 39.2522 65.8645 39.4423 66.0547C39.6325 66.2448 39.8702 66.3803 40.1307 66.4471C40.3912 66.5138 40.6649 66.5093 40.923 66.434L49.533 63.923C50.501 63.6403 51.3821 63.1183 52.095 62.405L64.134 50.378ZM42 21.5C42 28.1274 36.6274 33.5 30 33.5C23.3726 33.5 18 28.1274 18 21.5C18 14.8726 23.3726 9.5 30 9.5C36.6274 9.5 42 14.8726 42 21.5Z" stroke="#805B55" stroke-width="2" stroke-linecap="round" stroke-linejoin="round"/>
</svg>
