<svg width="32" height="25" viewBox="0 0 32 25" fill="none" xmlns="http://www.w3.org/2000/svg">
<path d="M16 9.49805C14.3435 9.49805 13 10.8415 13 12.498C13 14.1545 14.3435 15.498 16 15.498C17.6565 15.498 19 14.1545 19 12.498C19 10.8415 17.6565 9.49805 16 9.49805ZM17.5 12.996C17.2235 12.996 17 12.7725 17 12.496C17 11.944 16.552 11.496 16 11.496C15.7235 11.496 15.5 11.2725 15.5 10.996C15.5 10.7195 15.7235 10.496 16 10.496C17.1045 10.496 18 11.3915 18 12.496C18 12.7725 17.7765 12.996 17.5 12.996Z" fill="#805B55"/>
<path d="M16 5.49805C12.134 5.49805 9 8.63205 9 12.498C9 16.364 12.134 19.498 16 19.498C19.866 19.498 23 16.364 23 12.498C23 8.63205 19.866 5.49805 16 5.49805ZM16 16.498C13.791 16.498 12 14.707 12 12.498C12 10.289 13.791 8.49805 16 8.49805C18.209 8.49805 20 10.289 20 12.498C20 14.707 18.209 16.498 16 16.498Z" fill="#805B55"/>
<path d="M31.9669 12.3166C31.9594 12.2981 31.8389 11.9936 31.5969 11.4926C30.2984 8.80759 25.5099 0.496094 15.9999 0.496094C4.71589 0.496094 0.0788867 12.1981 0.0328867 12.3166C-0.0116133 12.4321 -0.0116133 12.5601 0.0328867 12.6761C0.0788867 12.7941 4.71589 24.4961 15.9999 24.4961C25.5049 24.4961 30.2934 16.1936 31.5944 13.5046C31.8374 13.0011 31.9589 12.6946 31.9664 12.6761C32.0109 12.5601 32.0109 12.4321 31.9669 12.3166ZM15.9999 20.4981C11.5814 20.4981 7.99989 16.9166 7.99989 12.4981C7.99989 8.07959 11.5814 4.49809 15.9999 4.49809C20.4184 4.49809 23.9999 8.07959 23.9999 12.4981C23.9999 16.9166 20.4184 20.4981 15.9999 20.4981Z" fill="#805B55"/>
</svg>
